<svg width="162" height="80" viewBox="0 0 162 80" fill="none" xmlns="http://www.w3.org/2000/svg">
<g filter="url(#filter0_d_4103_873)">
<path d="M39.2673 47.2551C39.6275 47.0407 40.039 46.9277 40.4582 46.9282C40.8774 46.9286 41.2887 47.0423 41.6485 47.2574L45.53 49.5782C46.4597 50.1337 47.5963 49.3121 47.3522 48.2731L46.333 43.95C46.2352 43.5348 46.2535 43.1008 46.3859 42.6953C46.5183 42.2899 46.7598 41.9287 47.0838 41.6513L50.4935 38.7308C51.3128 38.0301 50.8723 36.7017 49.7962 36.6169L45.2848 36.2392C44.8645 36.204 44.4617 36.055 44.1196 35.8083C43.7776 35.5616 43.509 35.2265 43.3429 34.8388L41.5834 30.733C41.1673 29.7557 39.7495 29.7557 39.3335 30.733L37.5764 34.8284C37.4099 35.2154 37.1415 35.55 36.7996 35.7962C36.4578 36.0425 36.0554 36.1912 35.6356 36.2264L31.1207 36.6053C30.0457 36.6901 29.6053 38.0184 30.4234 38.7192L33.8343 41.6397C34.1581 41.9172 34.3993 42.2784 34.5315 42.6839C34.6637 43.0893 34.6818 43.5233 34.5839 43.9384L33.5647 48.2615C33.3206 49.3005 34.4572 50.1209 35.3857 49.5654L39.2673 47.2551Z" fill="url(#paint0_linear_4103_873)" shape-rendering="crispEdges"/>
<path d="M45.4018 49.7928L45.4017 49.7928L41.5202 47.472C41.1991 47.2801 40.832 47.1785 40.4579 47.1782C40.0838 47.1778 39.7166 47.2786 39.3951 47.4699C39.3951 47.4699 39.3951 47.4699 39.3951 47.4699L35.5141 49.78L45.4018 49.7928ZM45.4018 49.7928C46.515 50.4579 47.8918 49.4767 47.5956 48.216L47.5956 48.2158M45.4018 49.7928L47.5956 48.2158M47.5956 48.2158L46.5764 43.8926C46.5764 43.8926 46.5764 43.8926 46.5764 43.8926C46.4891 43.5221 46.5054 43.1348 46.6236 42.7729C46.7417 42.4111 46.9572 42.0887 47.2464 41.8412L47.2464 41.8412M47.5956 48.2158L47.2464 41.8412M47.2464 41.8412L50.656 38.9208C51.6475 38.0728 51.11 36.4702 49.8165 36.3677C49.8163 36.3677 49.8161 36.3677 49.8158 36.3677L45.3057 35.9901C45.3057 35.9901 45.3057 35.9901 45.3056 35.9901C44.9306 35.9586 44.5712 35.8257 44.2659 35.6055C43.9606 35.3854 43.7209 35.0863 43.5726 34.7403L41.8134 30.6351C41.8134 30.635 41.8133 30.6349 41.8133 30.6348C41.3108 29.4551 39.6061 29.4551 39.1036 30.6348C39.1036 30.6349 39.1035 30.635 39.1035 30.6351L37.3467 34.7296L47.2464 41.8412ZM30.2608 38.9091L30.2608 38.9091C29.2709 38.0612 29.8079 36.4586 31.1004 36.3561C31.1006 36.3561 31.1008 36.3561 31.101 36.3561L35.6147 35.9773C35.6147 35.9773 35.6147 35.9773 35.6147 35.9773C35.9893 35.9458 36.3484 35.8131 36.6535 35.5934C36.9585 35.3736 37.1981 35.0752 37.3466 34.7298L30.2608 38.9091ZM30.2608 38.9091L33.6716 41.8295M30.2608 38.9091L33.6716 41.8295M33.6716 41.8295C33.6716 41.8295 33.6716 41.8295 33.6717 41.8296C33.9606 42.0772 34.1758 42.3996 34.2938 42.7614C34.4118 43.1232 34.428 43.5105 34.3405 43.8809L34.3405 43.881M33.6716 41.8295L34.3405 43.881M34.3405 43.881L33.3213 48.2041L33.3213 48.2043M34.3405 43.881L33.3213 48.2043M33.3213 48.2043C33.0252 49.465 34.4017 50.4449 35.5136 49.7802L33.3213 48.2043Z" stroke="#F80B53" stroke-width="0.5" shape-rendering="crispEdges"/>
</g>
<g filter="url(#filter1_d_4103_873)">
<path d="M66.2673 47.2551C66.6275 47.0407 67.039 46.9277 67.4582 46.9282C67.8774 46.9286 68.2887 47.0423 68.6485 47.2574L72.53 49.5782C73.4597 50.1337 74.5963 49.3121 74.3522 48.2731L73.333 43.95C73.2352 43.5348 73.2535 43.1008 73.3859 42.6953C73.5183 42.2899 73.7598 41.9287 74.0838 41.6513L77.4935 38.7308C78.3128 38.0301 77.8723 36.7017 76.7962 36.6169L72.2848 36.2392C71.8645 36.204 71.4617 36.055 71.1196 35.8083C70.7776 35.5616 70.509 35.2265 70.3429 34.8388L68.5834 30.733C68.1673 29.7557 66.7495 29.7557 66.3335 30.733L64.5764 34.8284C64.4099 35.2154 64.1415 35.55 63.7996 35.7962C63.4578 36.0425 63.0554 36.1912 62.6356 36.2264L58.1207 36.6053C57.0457 36.6901 56.6053 38.0184 57.4234 38.7192L60.8343 41.6397C61.1581 41.9172 61.3993 42.2784 61.5315 42.6839C61.6637 43.0893 61.6818 43.5233 61.5839 43.9384L60.5647 48.2615C60.3206 49.3005 61.4572 50.1209 62.3857 49.5654L66.2673 47.2551Z" fill="url(#paint1_linear_4103_873)" shape-rendering="crispEdges"/>
<path d="M72.4018 49.7928L72.4017 49.7928L68.5202 47.472C68.1991 47.2801 67.832 47.1785 67.4579 47.1782C67.0838 47.1778 66.7166 47.2786 66.3951 47.4699C66.3951 47.4699 66.3951 47.4699 66.3951 47.4699L62.5141 49.78L72.4018 49.7928ZM72.4018 49.7928C73.515 50.4579 74.8918 49.4767 74.5956 48.216L74.5956 48.2158M72.4018 49.7928L74.5956 48.2158M74.5956 48.2158L73.5764 43.8926C73.5764 43.8926 73.5764 43.8926 73.5764 43.8926C73.4891 43.5221 73.5054 43.1348 73.6236 42.7729C73.7417 42.4111 73.9572 42.0887 74.2464 41.8412L74.2464 41.8412M74.5956 48.2158L74.2464 41.8412M74.2464 41.8412L77.656 38.9208C78.6475 38.0728 78.11 36.4702 76.8165 36.3677C76.8163 36.3677 76.8161 36.3677 76.8158 36.3677L72.3057 35.9901C72.3057 35.9901 72.3057 35.9901 72.3056 35.9901C71.9306 35.9586 71.5712 35.8257 71.2659 35.6055C70.9606 35.3854 70.7209 35.0863 70.5726 34.7403L68.8134 30.6351C68.8134 30.635 68.8133 30.6349 68.8133 30.6348C68.3108 29.4551 66.6061 29.4551 66.1036 30.6348C66.1036 30.6349 66.1035 30.635 66.1035 30.6351L64.3467 34.7296L74.2464 41.8412ZM57.2608 38.9091L57.2608 38.9091C56.2709 38.0612 56.8079 36.4586 58.1004 36.3561C58.1006 36.3561 58.1008 36.3561 58.101 36.3561L62.6147 35.9773C62.6147 35.9773 62.6147 35.9773 62.6147 35.9773C62.9893 35.9458 63.3484 35.8131 63.6535 35.5934C63.9585 35.3736 64.1981 35.0752 64.3466 34.7298L57.2608 38.9091ZM57.2608 38.9091L60.6716 41.8295M57.2608 38.9091L60.6716 41.8295M60.6716 41.8295C60.6716 41.8295 60.6716 41.8295 60.6717 41.8296C60.9606 42.0772 61.1758 42.3996 61.2938 42.7614C61.4118 43.1232 61.428 43.5105 61.3405 43.8809L61.3405 43.881M60.6716 41.8295L61.3405 43.881M61.3405 43.881L60.3213 48.2041L60.3213 48.2043M61.3405 43.881L60.3213 48.2043M60.3213 48.2043C60.0252 49.465 61.4017 50.4449 62.5136 49.7802L60.3213 48.2043Z" stroke="#F80B53" stroke-width="0.5" shape-rendering="crispEdges"/>
</g>
<g filter="url(#filter2_d_4103_873)">
<path d="M93.2673 47.2551C93.6275 47.0407 94.039 46.9277 94.4582 46.9282C94.8774 46.9286 95.2887 47.0423 95.6485 47.2574L99.53 49.5782C100.46 50.1337 101.596 49.3121 101.352 48.2731L100.333 43.95C100.235 43.5348 100.254 43.1008 100.386 42.6953C100.518 42.2899 100.76 41.9287 101.084 41.6513L104.493 38.7308C105.313 38.0301 104.872 36.7017 103.796 36.6169L99.2848 36.2392C98.8645 36.204 98.4617 36.055 98.1196 35.8083C97.7776 35.5616 97.509 35.2265 97.3429 34.8388L95.5834 30.733C95.1673 29.7557 93.7495 29.7557 93.3335 30.733L91.5764 34.8284C91.4099 35.2154 91.1415 35.55 90.7996 35.7962C90.4578 36.0425 90.0554 36.1912 89.6356 36.2264L85.1207 36.6053C84.0457 36.6901 83.6053 38.0184 84.4234 38.7192L87.8343 41.6397C88.1581 41.9172 88.3993 42.2784 88.5315 42.6839C88.6637 43.0893 88.6818 43.5233 88.5839 43.9384L87.5647 48.2615C87.3206 49.3005 88.4572 50.1209 89.3857 49.5654L93.2673 47.2551Z" fill="url(#paint2_linear_4103_873)" shape-rendering="crispEdges"/>
<path d="M99.4018 49.7928L99.4017 49.7928L95.5202 47.472C95.1991 47.2801 94.832 47.1785 94.4579 47.1782C94.0838 47.1778 93.7166 47.2786 93.3951 47.4699C93.3951 47.4699 93.3951 47.4699 93.3951 47.4699L89.5141 49.78L99.4018 49.7928ZM99.4018 49.7928C100.515 50.4579 101.892 49.4767 101.596 48.216L101.596 48.2158M99.4018 49.7928L101.596 48.2158M101.596 48.2158L100.576 43.8926C100.576 43.8926 100.576 43.8926 100.576 43.8926C100.489 43.5221 100.505 43.1348 100.624 42.7729C100.742 42.4111 100.957 42.0887 101.246 41.8412L101.246 41.8412M101.596 48.2158L101.246 41.8412M101.246 41.8412L104.656 38.9208C105.647 38.0728 105.11 36.4702 103.816 36.3677C103.816 36.3677 103.816 36.3677 103.816 36.3677L99.3057 35.9901C99.3057 35.9901 99.3057 35.9901 99.3056 35.9901C98.9306 35.9586 98.5712 35.8257 98.2659 35.6055C97.9606 35.3854 97.7209 35.0863 97.5726 34.7403L95.8134 30.6351C95.8134 30.635 95.8133 30.6349 95.8133 30.6348C95.3108 29.4551 93.6061 29.4551 93.1036 30.6348C93.1036 30.6349 93.1035 30.635 93.1035 30.6351L91.3467 34.7296L101.246 41.8412ZM84.2608 38.9091L84.2608 38.9091C83.2709 38.0612 83.8079 36.4586 85.1004 36.3561C85.1006 36.3561 85.1008 36.3561 85.101 36.3561L89.6147 35.9773C89.6147 35.9773 89.6147 35.9773 89.6147 35.9773C89.9893 35.9458 90.3484 35.8131 90.6535 35.5934C90.9585 35.3736 91.1981 35.0752 91.3466 34.7298L84.2608 38.9091ZM84.2608 38.9091L87.6716 41.8295M84.2608 38.9091L87.6716 41.8295M87.6716 41.8295C87.6716 41.8295 87.6716 41.8295 87.6717 41.8296C87.9606 42.0772 88.1758 42.3996 88.2938 42.7614C88.4118 43.1232 88.428 43.5105 88.3405 43.8809L88.3405 43.881M87.6716 41.8295L88.3405 43.881M88.3405 43.881L87.3213 48.2041L87.3213 48.2043M88.3405 43.881L87.3213 48.2043M87.3213 48.2043C87.0252 49.465 88.4017 50.4449 89.5136 49.7802L87.3213 48.2043Z" stroke="#F80B53" stroke-width="0.5" shape-rendering="crispEdges"/>
</g>
<g filter="url(#filter3_d_4103_873)">
<path d="M120.267 47.2551C120.627 47.0407 121.039 46.9277 121.458 46.9282C121.877 46.9286 122.289 47.0423 122.648 47.2574L126.53 49.5782C127.46 50.1337 128.596 49.3121 128.352 48.2731L127.333 43.95C127.235 43.5348 127.254 43.1008 127.386 42.6953C127.518 42.2899 127.76 41.9287 128.084 41.6513L131.493 38.7308C132.313 38.0301 131.872 36.7017 130.796 36.6169L126.285 36.2392C125.865 36.204 125.462 36.055 125.12 35.8083C124.778 35.5616 124.509 35.2265 124.343 34.8388L122.583 30.733C122.167 29.7557 120.75 29.7557 120.333 30.733L118.576 34.8284C118.41 35.2154 118.141 35.55 117.8 35.7962C117.458 36.0425 117.055 36.1912 116.636 36.2264L112.121 36.6053C111.046 36.6901 110.605 38.0184 111.423 38.7192L114.834 41.6397C115.158 41.9172 115.399 42.2784 115.531 42.6839C115.664 43.0893 115.682 43.5233 115.584 43.9384L114.565 48.2615C114.321 49.3005 115.457 50.1209 116.386 49.5654L120.267 47.2551Z" fill="url(#paint3_linear_4103_873)" shape-rendering="crispEdges"/>
<path d="M126.402 49.7928L126.402 49.7928L122.52 47.472C122.199 47.2801 121.832 47.1785 121.458 47.1782C121.084 47.1778 120.717 47.2786 120.395 47.4699C120.395 47.4699 120.395 47.4699 120.395 47.4699L116.514 49.78L126.402 49.7928ZM126.402 49.7928C127.515 50.4579 128.892 49.4767 128.596 48.216L128.596 48.2158M126.402 49.7928L128.596 48.2158M128.596 48.2158L127.576 43.8926C127.576 43.8926 127.576 43.8926 127.576 43.8926C127.489 43.5221 127.505 43.1348 127.624 42.7729C127.742 42.4111 127.957 42.0887 128.246 41.8412L128.246 41.8412M128.596 48.2158L128.246 41.8412M128.246 41.8412L131.656 38.9208C132.647 38.0728 132.11 36.4702 130.816 36.3677C130.816 36.3677 130.816 36.3677 130.816 36.3677L126.306 35.9901C126.306 35.9901 126.306 35.9901 126.306 35.9901C125.931 35.9586 125.571 35.8257 125.266 35.6055C124.961 35.3854 124.721 35.0863 124.573 34.7403L122.813 30.6351C122.813 30.635 122.813 30.6349 122.813 30.6348C122.311 29.4551 120.606 29.4551 120.104 30.6348C120.104 30.6349 120.104 30.635 120.103 30.6351L118.347 34.7296L128.246 41.8412ZM111.261 38.9091L111.261 38.9091C110.271 38.0612 110.808 36.4586 112.1 36.3561C112.101 36.3561 112.101 36.3561 112.101 36.3561L116.615 35.9773C116.615 35.9773 116.615 35.9773 116.615 35.9773C116.989 35.9458 117.348 35.8131 117.653 35.5934C117.959 35.3736 118.198 35.0752 118.347 34.7298L111.261 38.9091ZM111.261 38.9091L114.672 41.8295M111.261 38.9091L114.672 41.8295M114.672 41.8295C114.672 41.8295 114.672 41.8295 114.672 41.8296C114.961 42.0772 115.176 42.3996 115.294 42.7614C115.412 43.1232 115.428 43.5105 115.341 43.8809L115.341 43.881M114.672 41.8295L115.341 43.881M115.341 43.881L114.321 48.2041L114.321 48.2043M115.341 43.881L114.321 48.2043M114.321 48.2043C114.025 49.465 115.402 50.4449 116.514 49.7802L114.321 48.2043Z" stroke="#F80B53" stroke-width="0.5" shape-rendering="crispEdges"/>
</g>
<path d="M146.718 47.2551C147.079 47.0407 147.49 46.9277 147.909 46.9282C148.329 46.9286 148.74 47.0423 149.1 47.2574L152.981 49.5782C153.911 50.1337 155.047 49.3121 154.803 48.2731L153.784 43.95C153.686 43.5348 153.705 43.1008 153.837 42.6953C153.97 42.2899 154.211 41.9287 154.535 41.6513L157.945 38.7308C158.764 38.0301 158.324 36.7017 157.247 36.6169L152.736 36.2392C152.316 36.204 151.913 36.055 151.571 35.8083C151.229 35.5616 150.96 35.2265 150.794 34.8388L149.035 30.733C148.619 29.7557 147.201 29.7557 146.785 30.733L145.028 34.8284C144.861 35.2154 144.593 35.55 144.251 35.7962C143.909 36.0425 143.507 36.1912 143.087 36.2264L138.572 36.6053C137.497 36.6901 137.056 38.0184 137.875 38.7192L141.285 41.6397C141.609 41.9172 141.85 42.2784 141.983 42.6839C142.115 43.0893 142.133 43.5233 142.035 43.9384L141.016 48.2615C140.772 49.3005 141.908 50.1209 142.837 49.5654L146.718 47.2551Z" fill="#F80B52" fill-opacity="0.27"/>
<defs>
<filter id="filter0_d_4103_873" x="0.499023" y="0.5" width="79.9199" height="78.7573" filterUnits="userSpaceOnUse" color-interpolation-filters="sRGB">
<feFlood flood-opacity="0" result="BackgroundImageFix"/>
<feColorMatrix in="SourceAlpha" type="matrix" values="0 0 0 0 0 0 0 0 0 0 0 0 0 0 0 0 0 0 127 0" result="hardAlpha"/>
<feOffset/>
<feGaussianBlur stdDeviation="14.5"/>
<feComposite in2="hardAlpha" operator="out"/>
<feColorMatrix type="matrix" values="0 0 0 0 0.972549 0 0 0 0 0.0431373 0 0 0 0 0.321569 0 0 0 1 0"/>
<feBlend mode="normal" in2="BackgroundImageFix" result="effect1_dropShadow_4103_873"/>
<feBlend mode="normal" in="SourceGraphic" in2="effect1_dropShadow_4103_873" result="shape"/>
</filter>
<filter id="filter1_d_4103_873" x="27.499" y="0.5" width="79.9199" height="78.7573" filterUnits="userSpaceOnUse" color-interpolation-filters="sRGB">
<feFlood flood-opacity="0" result="BackgroundImageFix"/>
<feColorMatrix in="SourceAlpha" type="matrix" values="0 0 0 0 0 0 0 0 0 0 0 0 0 0 0 0 0 0 127 0" result="hardAlpha"/>
<feOffset/>
<feGaussianBlur stdDeviation="14.5"/>
<feComposite in2="hardAlpha" operator="out"/>
<feColorMatrix type="matrix" values="0 0 0 0 0.972549 0 0 0 0 0.0431373 0 0 0 0 0.321569 0 0 0 1 0"/>
<feBlend mode="normal" in2="BackgroundImageFix" result="effect1_dropShadow_4103_873"/>
<feBlend mode="normal" in="SourceGraphic" in2="effect1_dropShadow_4103_873" result="shape"/>
</filter>
<filter id="filter2_d_4103_873" x="54.499" y="0.5" width="79.9199" height="78.7573" filterUnits="userSpaceOnUse" color-interpolation-filters="sRGB">
<feFlood flood-opacity="0" result="BackgroundImageFix"/>
<feColorMatrix in="SourceAlpha" type="matrix" values="0 0 0 0 0 0 0 0 0 0 0 0 0 0 0 0 0 0 127 0" result="hardAlpha"/>
<feOffset/>
<feGaussianBlur stdDeviation="14.5"/>
<feComposite in2="hardAlpha" operator="out"/>
<feColorMatrix type="matrix" values="0 0 0 0 0.972549 0 0 0 0 0.0431373 0 0 0 0 0.321569 0 0 0 1 0"/>
<feBlend mode="normal" in2="BackgroundImageFix" result="effect1_dropShadow_4103_873"/>
<feBlend mode="normal" in="SourceGraphic" in2="effect1_dropShadow_4103_873" result="shape"/>
</filter>
<filter id="filter3_d_4103_873" x="81.499" y="0.5" width="79.9199" height="78.7573" filterUnits="userSpaceOnUse" color-interpolation-filters="sRGB">
<feFlood flood-opacity="0" result="BackgroundImageFix"/>
<feColorMatrix in="SourceAlpha" type="matrix" values="0 0 0 0 0 0 0 0 0 0 0 0 0 0 0 0 0 0 127 0" result="hardAlpha"/>
<feOffset/>
<feGaussianBlur stdDeviation="14.5"/>
<feComposite in2="hardAlpha" operator="out"/>
<feColorMatrix type="matrix" values="0 0 0 0 0.972549 0 0 0 0 0.0431373 0 0 0 0 0.321569 0 0 0 1 0"/>
<feBlend mode="normal" in2="BackgroundImageFix" result="effect1_dropShadow_4103_873"/>
<feBlend mode="normal" in="SourceGraphic" in2="effect1_dropShadow_4103_873" result="shape"/>
</filter>
<linearGradient id="paint0_linear_4103_873" x1="29" y1="44" x2="58" y2="36.5" gradientUnits="userSpaceOnUse">
<stop stop-color="#F80B52"/>
<stop offset="1" stop-color="#F80B52" stop-opacity="0"/>
</linearGradient>
<linearGradient id="paint1_linear_4103_873" x1="56" y1="44" x2="85" y2="36.5" gradientUnits="userSpaceOnUse">
<stop stop-color="#F80B52"/>
<stop offset="1" stop-color="#F80B52" stop-opacity="0"/>
</linearGradient>
<linearGradient id="paint2_linear_4103_873" x1="83" y1="44" x2="112" y2="36.5" gradientUnits="userSpaceOnUse">
<stop stop-color="#F80B52"/>
<stop offset="1" stop-color="#F80B52" stop-opacity="0"/>
</linearGradient>
<linearGradient id="paint3_linear_4103_873" x1="110" y1="44" x2="139" y2="36.5" gradientUnits="userSpaceOnUse">
<stop stop-color="#F80B52"/>
<stop offset="1" stop-color="#F80B52" stop-opacity="0"/>
</linearGradient>
</defs>
</svg>
