<svg width="81" height="81" viewBox="0 0 81 81" fill="none" xmlns="http://www.w3.org/2000/svg">
<path d="M70.1474 40.5C70.1474 45.5756 68.8443 50.5662 66.363 54.9939C63.8816 59.4216 60.3051 63.1381 55.9759 65.7876L54.7487 63.7823C58.7346 61.3429 62.0275 57.9211 64.3121 53.8446C66.5967 49.768 67.7964 45.1731 67.7964 40.5H70.1474Z" fill="#FFB46E"/>
<path d="M55.3224 66.176C50.9268 68.7138 45.9533 70.0806 40.8781 70.1456C35.8029 70.2105 30.7961 68.9714 26.337 66.5469L27.46 64.4814C31.5655 66.7137 36.1753 67.8545 40.848 67.7947C45.5208 67.735 50.0999 66.4765 54.1469 64.14L55.3224 66.176Z" fill="#FFB46E"/>
<path d="M25.6774 66.175C21.2818 63.6372 17.6114 60.0134 15.0176 55.6507C12.4237 51.2879 10.9934 46.3323 10.8635 41.2583L13.2138 41.1982C13.3334 45.8698 14.6503 50.4324 17.0384 54.4492C19.4265 58.466 22.8059 61.8024 26.8529 64.139L25.6774 66.175Z" fill="#FFB46E"/>
<path d="M10.8511 40.4997C10.8511 35.4241 12.1542 30.4335 14.6355 26.0058C17.1169 21.5781 20.6934 17.8616 25.0227 15.2122L26.2499 17.2175C22.264 19.6568 18.971 23.0786 16.6865 27.1552C14.4019 31.2318 13.2021 35.8266 13.2021 40.4997L10.8511 40.4997Z" fill="#FFB46E" fill-opacity="0.19"/>
<path d="M25.6761 14.824C30.0717 12.2862 35.0452 10.9194 40.1204 10.8544C45.1956 10.7895 50.2025 12.0286 54.6615 14.4531L53.5385 16.5186C49.433 14.2863 44.8232 13.1455 40.1505 13.2053C35.4778 13.265 30.8986 14.5235 26.8516 16.86L25.6761 14.824Z" fill="#FFB46E" fill-opacity="0.19"/>
<path d="M55.3226 14.825C59.7181 17.3628 63.3886 20.9866 65.9824 25.3493C68.5763 29.7121 70.0066 34.6677 70.1364 39.7417L67.7862 39.8018C67.6666 35.1302 66.3497 30.5676 63.9616 26.5508C61.5735 22.534 58.1941 19.1976 54.147 16.861L55.3226 14.825Z" fill="#FFB46E"/>
<g filter="url(#filter0_b_4103_1004)">
<ellipse cx="24.4153" cy="24.4153" rx="24.4153" ry="24.4153" transform="matrix(1 0 0 -1 16.084 64.9153)" fill="black" fill-opacity="0.35"/>
<ellipse cx="24.4153" cy="24.4153" rx="24.4153" ry="24.4153" transform="matrix(1 0 0 -1 16.084 64.9153)" fill="black" fill-opacity="0.55"/>
</g>
<g filter="url(#filter1_dd_4103_1004)">
<path d="M47.9039 40.678H33.6448C33.2084 40.678 32.79 40.8513 32.4814 41.1599C32.1729 41.4684 31.9995 41.8869 31.9995 42.3232C31.9995 42.7596 32.1729 43.1781 32.4814 43.4866C32.79 43.7952 33.2084 43.9685 33.6448 43.9685H47.9039C48.3402 43.9685 48.7587 43.7952 49.0672 43.4866C49.3758 43.1781 49.5491 42.7596 49.5491 42.3232C49.5491 41.8869 49.3758 41.4684 49.0672 41.1599C48.7587 40.8513 48.3402 40.678 47.9039 40.678ZM48.4523 45.0654H33.0964C32.9509 45.0654 32.8114 45.1231 32.7086 45.226C32.6057 45.3288 32.5479 45.4683 32.5479 45.6138V46.1622C32.5479 46.744 32.7791 47.302 33.1905 47.7134C33.6019 48.1248 34.1598 48.3559 34.7416 48.3559H46.807C47.3888 48.3559 47.9468 48.1248 48.3582 47.7134C48.7696 47.302 49.0007 46.744 49.0007 46.1622V45.6138C49.0007 45.4683 48.9429 45.3288 48.8401 45.226C48.7372 45.1231 48.5977 45.0654 48.4523 45.0654ZM34.0095 39.5811H47.5392C48.7241 39.5811 49.4113 38.0764 48.7327 36.9802C47.3554 34.755 44.3237 33.0034 40.7743 33C37.2253 33.0034 34.1932 34.755 32.816 36.9799C32.1366 38.076 32.8245 39.5811 34.0095 39.5811ZM45.1617 35.7421C45.2702 35.7421 45.3762 35.7743 45.4664 35.8346C45.5566 35.8948 45.6269 35.9805 45.6684 36.0807C45.7099 36.1809 45.7208 36.2912 45.6996 36.3975C45.6785 36.5039 45.6262 36.6017 45.5495 36.6783C45.4728 36.755 45.3751 36.8073 45.2687 36.8284C45.1623 36.8496 45.0521 36.8387 44.9519 36.7972C44.8516 36.7557 44.766 36.6854 44.7057 36.5952C44.6455 36.5051 44.6133 36.399 44.6133 36.2906C44.6133 36.1451 44.6711 36.0056 44.7739 35.9028C44.8768 35.7999 45.0163 35.7421 45.1617 35.7421ZM40.7743 34.6453C40.8828 34.6453 40.9888 34.6774 41.079 34.7377C41.1692 34.798 41.2395 34.8836 41.281 34.9838C41.3225 35.084 41.3334 35.1943 41.3122 35.3007C41.2911 35.4071 41.2388 35.5048 41.1621 35.5815C41.0854 35.6582 40.9877 35.7104 40.8813 35.7316C40.7749 35.7528 40.6647 35.7419 40.5645 35.7004C40.4642 35.6589 40.3786 35.5886 40.3183 35.4984C40.2581 35.4082 40.2259 35.3022 40.2259 35.1937C40.2259 35.0483 40.2837 34.9088 40.3865 34.8059C40.4894 34.7031 40.6289 34.6453 40.7743 34.6453ZM36.3869 35.7421C36.4954 35.7421 36.6014 35.7743 36.6916 35.8346C36.7818 35.8948 36.8521 35.9805 36.8936 36.0807C36.9351 36.1809 36.946 36.2912 36.9248 36.3975C36.9036 36.5039 36.8514 36.6017 36.7747 36.6783C36.698 36.755 36.6003 36.8073 36.4939 36.8284C36.3875 36.8496 36.2773 36.8387 36.177 36.7972C36.0768 36.7557 35.9912 36.6854 35.9309 36.5952C35.8707 36.5051 35.8385 36.399 35.8385 36.2906C35.8385 36.1451 35.8963 36.0056 35.9991 35.9028C36.102 35.7999 36.2415 35.7421 36.3869 35.7421Z" fill="#FFB46E"/>
</g>
<defs>
<filter id="filter0_b_4103_1004" x="-33.916" y="-33.9153" width="148.831" height="148.831" filterUnits="userSpaceOnUse" color-interpolation-filters="sRGB">
<feFlood flood-opacity="0" result="BackgroundImageFix"/>
<feGaussianBlur in="BackgroundImageFix" stdDeviation="25"/>
<feComposite in2="SourceAlpha" operator="in" result="effect1_backgroundBlur_4103_1004"/>
<feBlend mode="normal" in="SourceGraphic" in2="effect1_backgroundBlur_4103_1004" result="shape"/>
</filter>
<filter id="filter1_dd_4103_1004" x="21.4995" y="22.5" width="38.5498" height="36.356" filterUnits="userSpaceOnUse" color-interpolation-filters="sRGB">
<feFlood flood-opacity="0" result="BackgroundImageFix"/>
<feColorMatrix in="SourceAlpha" type="matrix" values="0 0 0 0 0 0 0 0 0 0 0 0 0 0 0 0 0 0 127 0" result="hardAlpha"/>
<feOffset/>
<feGaussianBlur stdDeviation="2"/>
<feComposite in2="hardAlpha" operator="out"/>
<feColorMatrix type="matrix" values="0 0 0 0 0 0 0 0 0 0 0 0 0 0 0 0 0 0 0.25 0"/>
<feBlend mode="normal" in2="BackgroundImageFix" result="effect1_dropShadow_4103_1004"/>
<feColorMatrix in="SourceAlpha" type="matrix" values="0 0 0 0 0 0 0 0 0 0 0 0 0 0 0 0 0 0 127 0" result="hardAlpha"/>
<feOffset/>
<feGaussianBlur stdDeviation="5.25"/>
<feComposite in2="hardAlpha" operator="out"/>
<feColorMatrix type="matrix" values="0 0 0 0 1 0 0 0 0 0.705882 0 0 0 0 0.431373 0 0 0 0.66 0"/>
<feBlend mode="normal" in2="effect1_dropShadow_4103_1004" result="effect2_dropShadow_4103_1004"/>
<feBlend mode="normal" in="SourceGraphic" in2="effect2_dropShadow_4103_1004" result="shape"/>
</filter>
</defs>
</svg>
