<svg width="14" height="15" viewBox="0 0 14 15" fill="none" xmlns="http://www.w3.org/2000/svg">
<path d="M7.12143 0.000644551C7.75861 0.0368379 8.28896 0.340687 8.60886 0.958309L13.8441 11.5268C14.3516 12.5951 13.5656 14.0326 12.2758 14.0533H1.73329C0.559338 14.0346 -0.403872 12.7016 0.171135 11.5151L5.50411 0.946926C5.60393 0.757203 5.64947 0.702329 5.73557 0.602797C6.08175 0.201459 6.46032 -0.0133658 7.12143 0.000644551ZM7.03532 1.1673C6.8348 1.17722 6.65121 1.2896 6.55109 1.46414C4.70873 4.9606 2.93263 8.49295 1.20936 12.0498C1.04999 12.4074 1.32349 12.8662 1.72366 12.8855C5.24375 12.9424 8.76531 12.9424 12.2854 12.8855C12.6721 12.8668 12.9629 12.4231 12.8017 12.0536C11.1109 8.49733 9.36775 4.96497 7.55779 1.46794C7.45096 1.27792 7.29422 1.16379 7.03532 1.1673Z" fill="#FF0451"/>
<path d="M7.47279 9.51455H6.49557L6.38816 4.71338H7.58488L7.47279 9.51455ZM6.35547 10.9827C6.35547 10.805 6.41297 10.6578 6.52826 10.5408C6.64385 10.424 6.80117 10.3654 7.00053 10.3654C7.20018 10.3654 7.3575 10.424 7.47279 10.5408C7.58809 10.6578 7.64588 10.805 7.64588 10.9827C7.64588 11.154 7.58955 11.2974 7.47746 11.4127C7.36509 11.5279 7.20631 11.5857 7.00053 11.5857C6.79475 11.5857 6.63597 11.5279 6.52359 11.4127C6.41151 11.2974 6.35547 11.154 6.35547 10.9827Z" fill="#FF0451"/>
</svg>
