<svg width="62" height="62" viewBox="0 0 62 62" fill="none" xmlns="http://www.w3.org/2000/svg">
<path d="M2.27305 26.4634C1.55713 30.9836 1.92116 35.609 3.33538 39.9615C4.7496 44.314 7.17385 48.27 10.4099 51.5061C13.646 54.7422 17.602 57.1664 21.9546 58.5806C26.3071 59.9949 30.9325 60.3589 35.4527 59.643L35.0929 57.3716C30.9312 58.0307 26.6726 57.6956 22.6652 56.3935C18.6578 55.0914 15.0155 52.8594 12.0361 49.88C9.05661 46.9005 6.8246 43.2582 5.52253 39.2509C4.22046 35.2435 3.88529 30.9849 4.54445 26.8232L2.27305 26.4634Z" fill="#F80B53"/>
<path d="M48.8011 8.17179C45.1986 5.34937 40.9792 3.41963 36.488 2.54036C31.9967 1.66109 27.3612 1.85724 22.9602 3.11278C18.5593 4.36832 14.5181 6.6476 11.1668 9.76427C7.81559 12.8809 5.24956 16.7465 3.67852 21.0449L5.83848 21.8343C7.28493 17.8768 9.64748 14.3178 12.733 11.4483C15.8184 8.57876 19.5392 6.48022 23.5912 5.32425C27.6431 4.16827 31.9111 3.98767 36.0461 4.79722C40.1812 5.60677 44.066 7.38348 47.3829 9.98208L48.8011 8.17179Z" fill="#F80B53"/>
<path d="M42.7114 57.4928C46.8922 55.6314 50.5732 52.8069 53.4532 49.2503C56.3333 45.6937 58.3308 41.5059 59.2823 37.0294C60.2338 32.5529 60.1124 27.9148 58.9279 23.4942C57.7434 19.0737 55.5295 14.9962 52.4672 11.5952L50.7582 13.134C53.5776 16.2653 55.616 20.0194 56.7065 24.0895C57.7971 28.1595 57.9089 32.4298 57.0328 36.5513C56.1568 40.6728 54.3177 44.5285 51.666 47.803C49.0143 51.0776 45.6253 53.6781 41.776 55.3919L42.7114 57.4928Z" fill="#F80B53"/>
<g filter="url(#filter0_b_4103_1041)">
<circle cx="23.8824" cy="23.8824" r="23.8824" transform="matrix(-1 0 0 1 54.8018 7.11475)" fill="black" fill-opacity="0.55"/>
<circle cx="23.8824" cy="23.8824" r="23.8824" transform="matrix(-1 0 0 1 54.8018 7.11475)" fill="black" fill-opacity="0.35"/>
</g>
<g filter="url(#filter1_d_4103_1041)">
<path d="M32.306 20.4355H29.5258C27.8308 20.4355 26.4548 21.8115 26.4548 23.5065V32.2349C26.4548 33.9299 27.8308 35.3062 29.5258 35.3062H32.306C34.001 35.3062 35.377 33.9299 35.377 32.2349V23.5065C35.377 21.8115 34.001 20.4355 32.306 20.4355Z" fill="#F80B53"/>
<path d="M31.6305 39.085L31.6348 38.5194C31.6367 38.3224 31.7978 38.1627 31.9948 38.1627H32.5249C33.8491 38.1627 35.1197 37.6344 36.0582 36.6994C36.9932 35.7609 37.5215 34.4903 37.5215 33.1661V32.8091C37.5215 32.6121 37.3614 32.4524 37.1645 32.4524H36.4508C36.2538 32.4524 36.0937 32.6121 36.0937 32.8091V33.1661C36.0937 34.1119 35.7193 35.0218 35.0483 35.6892C34.3806 36.3602 33.4707 36.7349 32.5249 36.7349H29.3131C28.3673 36.7349 27.4569 36.3602 26.7896 35.6892C26.1186 35.0218 25.7439 34.1119 25.7439 33.1661V32.8091C25.7439 32.6121 25.5842 32.4524 25.3872 32.4524H24.6731C24.4761 32.4524 24.3165 32.6121 24.3165 32.8091V33.1661C24.3165 34.4903 24.8448 35.7609 25.7797 36.6994C26.7183 37.6344 27.9889 38.1627 29.3131 38.1627H29.8432C30.0402 38.1627 30.2013 38.3224 30.2027 38.5194L30.2074 39.085L30.2013 41.0178C30.2009 41.2148 30.0402 41.3745 29.8435 41.3745H27.3733C27.1763 41.3745 27.0163 41.5346 27.0163 41.7315V42.4452C27.0163 42.6422 27.1763 42.8023 27.3733 42.8023H30.2122H31.6399H34.4646C34.6616 42.8023 34.8217 42.6422 34.8217 42.4452V41.7315C34.8217 41.5346 34.6616 41.3745 34.4646 41.3745H31.9944C31.7974 41.3745 31.637 41.2148 31.6367 41.0178L31.6305 39.085Z" fill="#F80B53"/>
</g>
<path d="M2.27305 26.4634C1.55713 30.9836 1.92116 35.609 3.33538 39.9615C4.7496 44.314 7.17385 48.27 10.4099 51.5061C13.646 54.7422 17.602 57.1664 21.9546 58.5806C26.3071 59.9949 30.9325 60.3589 35.4527 59.643L35.0929 57.3716C30.9312 58.0307 26.6726 57.6956 22.6652 56.3935C18.6578 55.0914 15.0155 52.8594 12.0361 49.88C9.05662 46.9005 6.8246 43.2582 5.52253 39.2509C4.22046 35.2435 3.88529 30.9849 4.54445 26.8232L2.27305 26.4634Z" fill="#107ACC"/>
<path d="M48.8013 8.1717C45.1988 5.34928 40.9794 3.41954 36.4882 2.54027C31.9969 1.661 27.3614 1.85715 22.9604 3.11269C18.5595 4.36823 14.5183 6.64751 11.167 9.76418C7.81578 12.8808 5.24975 16.7464 3.67871 21.0448L5.83867 21.8342C7.28512 17.8767 9.64767 14.3177 12.7332 11.4482C15.8186 8.57867 19.5394 6.48013 23.5914 5.32416C27.6433 4.16818 31.9113 3.98758 36.0463 4.79713C40.1814 5.60668 44.0662 7.38339 47.3831 9.98199L48.8013 8.1717Z" fill="#107ACC"/>
<path d="M42.7118 57.4928C46.8926 55.6314 50.5736 52.8069 53.4536 49.2503C56.3337 45.6937 58.3312 41.5059 59.2827 37.0294C60.2342 32.5529 60.1128 27.9148 58.9283 23.4942C57.7438 19.0737 55.5299 14.9962 52.4676 11.5952L50.7586 13.134C53.578 16.2653 55.6164 20.0194 56.7069 24.0895C57.7975 28.1595 57.9093 32.4298 57.0332 36.5513C56.1572 40.6728 54.3181 44.5285 51.6664 47.803C49.0147 51.0776 45.6257 53.6781 41.7764 55.3919L42.7118 57.4928Z" fill="#107ACC"/>
<path d="M30.9194 54.8795C17.7295 54.8795 7.03696 44.187 7.03696 30.9971C7.03696 17.8073 17.7295 7.11475 30.9194 7.11475C44.1092 7.11475 54.8018 17.8073 54.8018 30.9971C54.8018 44.187 44.1092 54.8795 30.9194 54.8795Z" fill="black" fill-opacity="0.55"/>
<path d="M30.9194 54.8795C17.7295 54.8795 7.03696 44.187 7.03696 30.9971C7.03696 17.8073 17.7295 7.11475 30.9194 7.11475C44.1092 7.11475 54.8018 17.8073 54.8018 30.9971C54.8018 44.187 44.1092 54.8795 30.9194 54.8795Z" fill="black" fill-opacity="0.35"/>
<path d="M32.3063 20.4355H29.5261C27.8311 20.4355 26.4551 21.8115 26.4551 23.5065V32.2349C26.4551 33.9299 27.8311 35.3062 29.5261 35.3062H32.3063C34.0013 35.3062 35.3773 33.9299 35.3773 32.2349V23.5065C35.3773 21.8115 34.0013 20.4355 32.3063 20.4355Z" fill="#107ACC"/>
<path d="M31.6304 39.085L31.6347 38.5194C31.6366 38.3224 31.7977 38.1627 31.9947 38.1627H32.5248C33.849 38.1627 35.1196 37.6344 36.0581 36.6994C36.9931 35.7609 37.5214 34.4903 37.5214 33.1661V32.8091C37.5214 32.6121 37.3613 32.4524 37.1644 32.4524H36.4507C36.2537 32.4524 36.0936 32.6121 36.0936 32.8091V33.1661C36.0936 34.1119 35.7192 35.0218 35.0482 35.6892C34.3805 36.3602 33.4706 36.7349 32.5248 36.7349H29.313C28.3672 36.7349 27.4568 36.3602 26.7895 35.6892C26.1185 35.0218 25.7438 34.1119 25.7438 33.1661V32.8091C25.7438 32.6121 25.5841 32.4524 25.3871 32.4524H24.673C24.476 32.4524 24.3164 32.6121 24.3164 32.8091V33.1661C24.3164 34.4903 24.8447 35.7609 25.7796 36.6994C26.7182 37.6344 27.9888 38.1627 29.313 38.1627H29.8431C30.0401 38.1627 30.2012 38.3224 30.2026 38.5194L30.2073 39.085L30.2012 41.0178C30.2008 41.2148 30.0401 41.3745 29.8434 41.3745H27.3732C27.1762 41.3745 27.0162 41.5346 27.0162 41.7315V42.4452C27.0162 42.6422 27.1762 42.8023 27.3732 42.8023H30.2121H31.6398H34.4645C34.6615 42.8023 34.8216 42.6422 34.8216 42.4452V41.7315C34.8216 41.5346 34.6615 41.3745 34.4645 41.3745H31.9943C31.7973 41.3745 31.6369 41.2148 31.6366 41.0178L31.6304 39.085Z" fill="#107ACC"/>
<defs>
<filter id="filter0_b_4103_1041" x="-42.9629" y="-42.8853" width="147.765" height="147.765" filterUnits="userSpaceOnUse" color-interpolation-filters="sRGB">
<feFlood flood-opacity="0" result="BackgroundImageFix"/>
<feGaussianBlur in="BackgroundImageFix" stdDeviation="25"/>
<feComposite in2="SourceAlpha" operator="in" result="effect1_backgroundBlur_4103_1041"/>
<feBlend mode="normal" in="SourceGraphic" in2="effect1_backgroundBlur_4103_1041" result="shape"/>
</filter>
<filter id="filter1_d_4103_1041" x="13.8164" y="9.93555" width="34.2051" height="43.3667" filterUnits="userSpaceOnUse" color-interpolation-filters="sRGB">
<feFlood flood-opacity="0" result="BackgroundImageFix"/>
<feColorMatrix in="SourceAlpha" type="matrix" values="0 0 0 0 0 0 0 0 0 0 0 0 0 0 0 0 0 0 127 0" result="hardAlpha"/>
<feOffset/>
<feGaussianBlur stdDeviation="5.25"/>
<feComposite in2="hardAlpha" operator="out"/>
<feColorMatrix type="matrix" values="0 0 0 0 0.972549 0 0 0 0 0.0431373 0 0 0 0 0.32549 0 0 0 0.66 0"/>
<feBlend mode="normal" in2="BackgroundImageFix" result="effect1_dropShadow_4103_1041"/>
<feBlend mode="normal" in="SourceGraphic" in2="effect1_dropShadow_4103_1041" result="shape"/>
</filter>
</defs>
</svg>
