<svg width="13" height="15" viewBox="0 0 13 15" fill="none" xmlns="http://www.w3.org/2000/svg">
<path d="M10.2349 8.17085C10.3449 7.80633 10.1317 7.42119 9.76718 7.31802C9.69841 7.29739 9.63651 7.27676 9.56773 7.263C9.56085 6.65089 9.43705 6.05941 9.21009 5.52296L5.47553 8.19148C6.78916 8.11583 8.10967 8.26026 9.38203 8.63853C9.74655 8.74169 10.1317 8.53536 10.2349 8.17085ZM7.35402 13.5805C7.40437 13.5919 7.4554 13.5973 7.50512 13.5973C7.82012 13.5973 8.10355 13.3804 8.17542 13.06L8.86318 9.9946C8.93843 9.65876 8.75438 9.31962 8.43196 9.19933C6.94625 8.64726 5.3115 8.64726 3.82579 9.19933C3.50337 9.31955 3.31939 9.65876 3.39456 9.9946L4.08233 13.06C4.16561 13.4314 4.53501 13.6651 4.90372 13.5805C5.2745 13.4972 5.50751 13.1298 5.42422 12.7591L4.87546 10.3116C5.70291 10.1047 6.55456 10.1047 7.38201 10.3116L6.83325 12.7591C6.75017 13.1298 6.98325 13.4972 7.35402 13.5805ZM0.757466 9.86963C0.888141 10.0553 1.10135 10.1585 1.31456 10.1585C1.45211 10.1585 1.59654 10.1172 1.71346 10.0278L11.3422 3.15017C11.6517 2.93008 11.7204 2.50367 11.5003 2.19418C11.2803 1.88468 10.8539 1.8159 10.5444 2.03599L7.94461 3.89295C7.89701 3.85643 7.84612 3.82789 7.79701 3.79495C8.04289 3.45533 8.1922 3.04198 8.1922 2.59308C8.1922 1.45827 7.26372 0.529785 6.12891 0.529785C4.9941 0.529785 4.06561 1.45827 4.06561 2.59308C4.06561 3.04411 4.21658 3.45904 4.46459 3.79956C3.54085 4.40561 2.87227 5.48932 2.72447 6.77469C2.70384 6.93287 2.69008 7.09794 2.69008 7.263C2.62131 7.27676 2.55941 7.29739 2.49063 7.31802C2.13987 7.41431 1.92667 7.77882 2.01608 8.12958L0.915652 8.91364C0.606158 9.13372 0.537381 9.56013 0.757466 9.86963Z" fill="#A7A7A7" fill-opacity="0.25"/>
</svg>
