<svg width="15" height="13" viewBox="0 0 15 13" fill="none" xmlns="http://www.w3.org/2000/svg">
<path fill-rule="evenodd" clip-rule="evenodd" d="M13.0454 7.8853L13.0454 4.86564C13.0454 4.76553 13.0057 4.66952 12.9349 4.59874C12.8641 4.52795 12.7681 4.48818 12.668 4.48818C12.5679 4.48818 12.4719 4.52795 12.4011 4.59874C12.3303 4.66952 12.2905 4.76553 12.2905 4.86564L12.2905 5.99801L11.5356 5.99801L11.5356 5.2431C11.5356 5.04288 11.4561 4.85086 11.3145 4.70929C11.1729 4.56772 10.9809 4.48818 10.7807 4.48818L10.1819 4.48818L8.86422 3.17045L4.59553 10.0874L4.60851 10.093C4.70012 10.131 4.79837 10.1504 4.89754 10.15L7.98231 10.15C8.08149 10.1504 8.17973 10.131 8.27134 10.093C8.36295 10.055 8.4461 9.99916 8.51594 9.92876L10.1819 8.26275L10.7807 8.26275C10.9809 8.26275 11.1729 8.18322 11.3145 8.04164C11.4561 7.90007 11.5356 7.70806 11.5356 7.50784L11.5356 6.75292L12.2905 6.75292L12.2905 7.8853C12.2905 7.9854 12.3303 8.08141 12.4011 8.1522C12.4719 8.22299 12.5679 8.26275 12.668 8.26275C12.7681 8.26275 12.8641 8.22299 12.9349 8.1522C13.0057 8.08141 13.0454 7.9854 13.0454 7.8853ZM3.87251 9.43735L8.08715 2.60794C8.05249 2.60315 8.01746 2.60078 7.98231 2.60089L7.00611 2.60089L7.00611 1.84598L8.13849 1.84598C8.23859 1.84598 8.3346 1.80621 8.40539 1.73542C8.47618 1.66464 8.51594 1.56863 8.51594 1.46852C8.51594 1.36841 8.47618 1.27241 8.40539 1.20162C8.3346 1.13083 8.23859 1.09106 8.13849 1.09106L5.11883 1.09106C5.01872 1.09106 4.92271 1.13083 4.85193 1.20162C4.78114 1.27241 4.74137 1.36841 4.74137 1.46852C4.74137 1.56863 4.78114 1.66464 4.85193 1.73542C4.92271 1.80621 5.01872 1.84598 5.11883 1.84598L6.2512 1.84598L6.2512 2.60089L3.23154 2.60089C3.03133 2.60089 2.83931 2.68043 2.69774 2.822C2.55616 2.96358 2.47663 3.15559 2.47663 3.35581L2.47663 5.99801L1.72171 5.99801L1.72171 4.86564C1.72171 4.76553 1.68194 4.66952 1.61116 4.59874C1.54037 4.52795 1.44436 4.48818 1.34425 4.48818C1.24415 4.48818 1.14814 4.52795 1.07735 4.59874C1.00656 4.66952 0.966797 4.76553 0.966797 4.86564L0.966797 7.8853C0.966797 7.9854 1.00656 8.08141 1.07735 8.1522C1.14814 8.22299 1.24415 8.26275 1.34425 8.26275C1.44436 8.26275 1.54037 8.22299 1.61116 8.1522C1.68194 8.08141 1.72171 7.9854 1.72171 7.8853L1.72171 6.75292L2.47663 6.75292L2.47663 7.72912C2.47631 7.8283 2.49571 7.92654 2.5337 8.01815C2.57169 8.10976 2.62751 8.19291 2.69791 8.26275L3.87251 9.43735Z" fill="#FFB46E"/>
</svg>
