<svg width="427" height="430" viewBox="0 0 427 430" fill="none" xmlns="http://www.w3.org/2000/svg">
<circle cx="135.057" cy="135.057" r="135.057" transform="matrix(1 0 0 -1 135.058 405.172)" fill="black" fill-opacity="0.49"/>
<circle cx="129.488" cy="129.488" r="129.488" transform="matrix(1 0 0 -1 140.629 399.602)" fill="url(#paint0_radial_4103_925)" fill-opacity="0.25"/>
<path d="M264.744 373C264.646 373 264.549 373.017 264.459 373.052C264.369 373.087 264.286 373.137 264.217 373.201C264.148 373.265 264.093 373.341 264.056 373.425C264.019 373.509 264 373.598 264 373.689V384.706C264 385.05 264.372 385.394 264.744 385.394H271.437C271.808 385.394 272.18 385.05 272.18 384.706V381.263H272.552C272.924 381.263 272.924 381.607 272.924 381.607V382.984C272.924 383.673 273.296 384.017 274.039 384.017C274.783 384.017 275.155 383.673 275.155 382.984V379.197C275.155 378.508 273.668 377.82 273.668 377.131V375.066H272.924L272.18 374.377V373.689C272.18 373.598 272.161 373.509 272.124 373.425C272.087 373.341 272.032 373.265 271.963 373.201C271.894 373.137 271.812 373.087 271.721 373.052C271.631 373.018 271.534 373 271.437 373H264.744ZM265.487 374.377H270.693V377.131H265.487V374.377ZM272.18 376.443H272.924V377.476C272.924 378.164 274.411 378.853 274.411 379.541V382.984C274.411 383.328 274.039 383.328 274.039 383.328C274.039 383.328 273.668 383.328 273.668 382.984V381.263C273.668 380.919 273.296 380.574 272.924 380.574H272.18V376.443Z" fill="#F80B52"/>
<path d="M352.235 357.171C352.345 356.806 352.132 356.421 351.767 356.318C351.698 356.297 351.637 356.277 351.568 356.263C351.561 355.651 351.437 355.059 351.21 354.523L347.476 357.191C348.789 357.116 350.11 357.26 351.382 357.639C351.747 357.742 352.132 357.535 352.235 357.171ZM349.354 362.581C349.404 362.592 349.455 362.597 349.505 362.597C349.82 362.597 350.104 362.38 350.175 362.06L350.863 358.995C350.938 358.659 350.754 358.32 350.432 358.199C348.946 357.647 347.311 357.647 345.826 358.199C345.503 358.32 345.319 358.659 345.395 358.995L346.082 362.06C346.166 362.431 346.535 362.665 346.904 362.58C347.274 362.497 347.508 362.13 347.424 361.759L346.875 359.312C347.703 359.105 348.555 359.105 349.382 359.312L348.833 361.759C348.75 362.13 348.983 362.497 349.354 362.581ZM342.757 358.87C342.888 359.055 343.101 359.158 343.315 359.158C343.452 359.158 343.597 359.117 343.713 359.028L353.342 352.15C353.652 351.93 353.72 351.504 353.5 351.194C353.28 350.885 352.854 350.816 352.544 351.036L349.945 352.893C349.897 352.856 349.846 352.828 349.797 352.795C350.043 352.455 350.192 352.042 350.192 351.593C350.192 350.458 349.264 349.53 348.129 349.53C346.994 349.53 346.066 350.458 346.066 351.593C346.066 352.044 346.217 352.459 346.465 352.8C345.541 353.406 344.872 354.489 344.724 355.775C344.704 355.933 344.69 356.098 344.69 356.263C344.621 356.277 344.559 356.297 344.491 356.318C344.14 356.414 343.927 356.779 344.016 357.13L342.916 357.914C342.606 358.134 342.537 358.56 342.757 358.87Z" fill="#F80B52"/>
<path d="M360.48 340.747C360.508 340.918 360.656 341.044 360.829 341.044H369.859C370.336 341.044 370.803 340.861 371.126 340.509C371.204 340.424 371.277 340.33 371.346 340.232H360.398L360.48 340.747ZM360.284 339.061H371.585C371.683 339.061 371.773 339.087 371.854 339.129C372.104 338.208 372.049 337.113 371.559 336.152C371.44 335.92 371.262 335.724 371.053 335.57L366.717 332.376C365.578 331.538 364.201 331.084 362.786 331.084H359.353C359.136 331.084 358.97 331.278 359.004 331.493L360.213 339.068C360.236 339.065 360.259 339.061 360.284 339.061ZM362.855 337.029C362.855 337.094 362.802 337.147 362.737 337.147H361.02C360.955 337.147 360.902 337.094 360.902 337.029V336.754C360.902 336.689 360.955 336.637 361.02 336.637H362.738C362.802 336.637 362.855 336.689 362.855 336.754L362.855 337.029ZM362.786 331.967C364.019 331.967 365.198 332.354 366.194 333.088L368.986 335.144H360.482L359.975 331.967H362.786ZM371.585 339.337H360.284C360.113 339.337 359.975 339.475 359.975 339.646C359.975 339.817 360.113 339.955 360.284 339.955H371.585C371.756 339.955 371.894 339.817 371.894 339.646C371.894 339.475 371.756 339.337 371.585 339.337Z" fill="#A7A7A7" fill-opacity="0.25"/>
<path d="M377.357 317.751H379.214C380.758 317.751 382 315.818 382 313.417C382 311.017 380.758 309.084 379.214 309.084H377.357C376.738 309.084 376.429 309.394 376.429 310.013V316.822C376.426 317.446 376.738 317.751 377.357 317.751Z" fill="#A7A7A7" fill-opacity="0.25"/>
<path d="M374.571 317.751H369.619C369.277 317.751 369 317.474 369 317.132C369 316.79 369.277 316.513 369.619 316.513H374.571C374.913 316.513 375.19 316.79 375.19 317.132C375.19 317.474 374.913 317.751 374.571 317.751Z" fill="#A7A7A7" fill-opacity="0.25"/>
<path d="M374.571 315.275H369.619C369.277 315.275 369 314.997 369 314.655C369 314.314 369.277 314.036 369.619 314.036H374.571C374.913 314.036 375.19 314.314 375.19 314.655C375.19 314.997 374.913 315.275 374.571 315.275Z" fill="#A7A7A7" fill-opacity="0.25"/>
<path d="M374.571 312.798H369.619C369.277 312.798 369 312.521 369 312.179C369 311.837 369.277 311.56 369.619 311.56H374.571C374.913 311.56 375.19 311.837 375.19 312.179C375.19 312.521 374.913 312.798 374.571 312.798Z" fill="#A7A7A7" fill-opacity="0.25"/>
<path d="M374.571 310.322H369.619C369.277 310.322 369 310.045 369 309.703C369 309.361 369.277 309.084 369.619 309.084H374.571C374.913 309.084 375.19 309.361 375.19 309.703C375.19 310.045 374.913 310.322 374.571 310.322Z" fill="#A7A7A7" fill-opacity="0.25"/>
<path fill-rule="evenodd" clip-rule="evenodd" d="M392.045 291.885L392.045 288.866C392.045 288.766 392.006 288.67 391.935 288.599C391.864 288.528 391.768 288.488 391.668 288.488C391.568 288.488 391.472 288.528 391.401 288.599C391.33 288.67 391.291 288.766 391.291 288.866L391.291 289.998L390.536 289.998L390.536 289.243C390.536 289.043 390.456 288.851 390.314 288.709C390.173 288.568 389.981 288.488 389.781 288.488L389.182 288.488L387.864 287.17L383.596 294.087L383.609 294.093C383.7 294.131 383.798 294.15 383.898 294.15L386.982 294.15C387.081 294.15 387.18 294.131 387.271 294.093C387.363 294.055 387.446 293.999 387.516 293.929L389.182 292.263L389.781 292.263C389.981 292.263 390.173 292.183 390.314 292.042C390.456 291.9 390.536 291.708 390.536 291.508L390.536 290.753L391.291 290.753L391.291 291.885C391.291 291.985 391.33 292.081 391.401 292.152C391.472 292.223 391.568 292.263 391.668 292.263C391.768 292.263 391.864 292.223 391.935 292.152C392.006 292.081 392.045 291.985 392.045 291.885ZM382.873 293.437L387.087 286.608C387.052 286.603 387.017 286.601 386.982 286.601L386.006 286.601L386.006 285.846L387.138 285.846C387.239 285.846 387.335 285.806 387.405 285.735C387.476 285.665 387.516 285.569 387.516 285.469C387.516 285.368 387.476 285.272 387.405 285.202C387.335 285.131 387.239 285.091 387.138 285.091L384.119 285.091C384.019 285.091 383.923 285.131 383.852 285.202C383.781 285.272 383.741 285.368 383.741 285.469C383.741 285.569 383.781 285.665 383.852 285.735C383.923 285.806 384.019 285.846 384.119 285.846L385.251 285.846L385.251 286.601L382.232 286.601C382.031 286.601 381.839 286.68 381.698 286.822C381.556 286.964 381.477 287.156 381.477 287.356L381.477 289.998L380.722 289.998L380.722 288.866C380.722 288.766 380.682 288.67 380.611 288.599C380.54 288.528 380.444 288.488 380.344 288.488C380.244 288.488 380.148 288.528 380.077 288.599C380.007 288.67 379.967 288.766 379.967 288.866L379.967 291.885C379.967 291.985 380.007 292.081 380.077 292.152C380.148 292.223 380.244 292.263 380.344 292.263C380.444 292.263 380.54 292.223 380.611 292.152C380.682 292.081 380.722 291.985 380.722 291.885L380.722 290.753L381.477 290.753L381.477 291.729C381.476 291.828 381.496 291.927 381.534 292.018C381.572 292.11 381.628 292.193 381.698 292.263L382.873 293.437Z" fill="#A7A7A7" fill-opacity="0.25"/>
<path d="M188.868 341.834C188.868 340.229 189.129 338.978 189.652 338.082C190.175 337.177 191.089 336.724 192.396 336.724C193.693 336.724 194.603 337.177 195.126 338.082C195.649 338.978 195.91 340.229 195.91 341.834C195.91 343.467 195.649 344.737 195.126 345.642C194.603 346.547 193.693 347 192.396 347C191.089 347 190.175 346.547 189.652 345.642C189.129 344.737 188.868 343.467 188.868 341.834ZM194.65 341.834C194.65 341.022 194.594 340.336 194.482 339.776C194.379 339.207 194.16 338.749 193.824 338.404C193.497 338.059 193.021 337.886 192.396 337.886C191.761 337.886 191.276 338.059 190.94 338.404C190.613 338.749 190.394 339.207 190.282 339.776C190.179 340.336 190.128 341.022 190.128 341.834C190.128 342.674 190.179 343.379 190.282 343.948C190.394 344.517 190.613 344.975 190.94 345.32C191.276 345.665 191.761 345.838 192.396 345.838C193.021 345.838 193.497 345.665 193.824 345.32C194.16 344.975 194.379 344.517 194.482 343.948C194.594 343.379 194.65 342.674 194.65 341.834Z" fill="white"/>
<path d="M173.532 305.04V303.878H176.164V314H174.876V305.04H173.532Z" fill="white"/>
<path d="M165.714 271.978C166.899 271.026 167.828 270.247 168.5 269.64C169.172 269.024 169.737 268.385 170.194 267.722C170.661 267.05 170.894 266.392 170.894 265.748C170.894 265.141 170.745 264.665 170.446 264.32C170.157 263.965 169.685 263.788 169.032 263.788C168.397 263.788 167.903 263.989 167.548 264.39C167.203 264.782 167.016 265.309 166.988 265.972H165.756C165.793 264.927 166.111 264.119 166.708 263.55C167.305 262.981 168.075 262.696 169.018 262.696C169.979 262.696 170.74 262.962 171.3 263.494C171.869 264.026 172.154 264.759 172.154 265.692C172.154 266.467 171.921 267.223 171.454 267.96C170.997 268.688 170.474 269.332 169.886 269.892C169.298 270.443 168.547 271.087 167.632 271.824H172.448V272.888H165.714V271.978Z" fill="white"/>
<path d="M173.84 227.426C173.905 226.567 174.237 225.895 174.834 225.41C175.431 224.925 176.206 224.682 177.158 224.682C177.793 224.682 178.339 224.799 178.796 225.032C179.263 225.256 179.613 225.564 179.846 225.956C180.089 226.348 180.21 226.791 180.21 227.286C180.21 227.865 180.042 228.364 179.706 228.784C179.379 229.204 178.95 229.475 178.418 229.596V229.666C179.025 229.815 179.505 230.109 179.86 230.548C180.215 230.987 180.392 231.561 180.392 232.27C180.392 232.802 180.271 233.283 180.028 233.712C179.785 234.132 179.421 234.463 178.936 234.706C178.451 234.949 177.867 235.07 177.186 235.07C176.197 235.07 175.385 234.813 174.75 234.3C174.115 233.777 173.761 233.04 173.686 232.088H174.918C174.983 232.648 175.212 233.105 175.604 233.46C175.996 233.815 176.519 233.992 177.172 233.992C177.825 233.992 178.32 233.824 178.656 233.488C179.001 233.143 179.174 232.699 179.174 232.158C179.174 231.458 178.941 230.954 178.474 230.646C178.007 230.338 177.303 230.184 176.36 230.184H176.038V229.12H176.374C177.233 229.111 177.881 228.971 178.32 228.7C178.759 228.42 178.978 227.991 178.978 227.412C178.978 226.917 178.815 226.521 178.488 226.222C178.171 225.923 177.713 225.774 177.116 225.774C176.537 225.774 176.071 225.923 175.716 226.222C175.361 226.521 175.151 226.922 175.086 227.426H173.84Z" fill="white"/>
<path d="M192.56 201.746V200.78L197.474 193.976H199V200.64H200.4V201.746H199V204H197.74V201.746H192.56ZM197.796 195.306L194.03 200.64H197.796V195.306Z" fill="white"/>
<path d="M368.506 255.284C368.599 255.816 368.814 256.227 369.15 256.516C369.495 256.805 369.957 256.95 370.536 256.95C371.311 256.95 371.88 256.647 372.244 256.04C372.617 255.433 372.795 254.411 372.776 252.974C372.58 253.394 372.253 253.725 371.796 253.968C371.339 254.201 370.83 254.318 370.27 254.318C369.645 254.318 369.085 254.192 368.59 253.94C368.105 253.679 367.722 253.301 367.442 252.806C367.162 252.311 367.022 251.714 367.022 251.014C367.022 250.015 367.311 249.213 367.89 248.606C368.469 247.99 369.29 247.682 370.354 247.682C371.661 247.682 372.575 248.107 373.098 248.956C373.63 249.805 373.896 251.07 373.896 252.75C373.896 253.926 373.789 254.897 373.574 255.662C373.369 256.427 373.014 257.011 372.51 257.412C372.015 257.813 371.334 258.014 370.466 258.014C369.514 258.014 368.772 257.757 368.24 257.244C367.708 256.731 367.405 256.077 367.33 255.284H368.506ZM370.48 253.24C371.105 253.24 371.619 253.049 372.02 252.666C372.421 252.274 372.622 251.747 372.622 251.084C372.622 250.384 372.426 249.819 372.034 249.39C371.642 248.961 371.091 248.746 370.382 248.746C369.729 248.746 369.206 248.951 368.814 249.362C368.431 249.773 368.24 250.314 368.24 250.986C368.24 251.667 368.431 252.213 368.814 252.624C369.197 253.035 369.752 253.24 370.48 253.24Z" fill="#F80B52"/>
<path d="M230.322 173.984H225.408V177.176C225.623 176.877 225.94 176.635 226.36 176.448C226.78 176.252 227.233 176.154 227.718 176.154C228.493 176.154 229.123 176.317 229.608 176.644C230.093 176.961 230.439 177.377 230.644 177.89C230.859 178.394 230.966 178.931 230.966 179.5C230.966 180.172 230.84 180.774 230.588 181.306C230.336 181.838 229.949 182.258 229.426 182.566C228.913 182.874 228.273 183.028 227.508 183.028C226.528 183.028 225.735 182.776 225.128 182.272C224.521 181.768 224.153 181.096 224.022 180.256H225.268C225.389 180.788 225.646 181.203 226.038 181.502C226.43 181.801 226.925 181.95 227.522 181.95C228.259 181.95 228.815 181.731 229.188 181.292C229.561 180.844 229.748 180.256 229.748 179.528C229.748 178.8 229.561 178.24 229.188 177.848C228.815 177.447 228.264 177.246 227.536 177.246C227.041 177.246 226.607 177.367 226.234 177.61C225.87 177.843 225.604 178.165 225.436 178.576H224.232V172.864H230.322V173.984Z" fill="white"/>
<path d="M272.51 165.286C272.305 164.25 271.665 163.732 270.592 163.732C269.761 163.732 269.141 164.054 268.73 164.698C268.319 165.333 268.119 166.383 268.128 167.848C268.343 167.363 268.697 166.985 269.192 166.714C269.696 166.434 270.256 166.294 270.872 166.294C271.833 166.294 272.599 166.593 273.168 167.19C273.747 167.787 274.036 168.613 274.036 169.668C274.036 170.303 273.91 170.872 273.658 171.376C273.415 171.88 273.042 172.281 272.538 172.58C272.043 172.879 271.441 173.028 270.732 173.028C269.771 173.028 269.019 172.813 268.478 172.384C267.937 171.955 267.559 171.362 267.344 170.606C267.129 169.85 267.022 168.917 267.022 167.806C267.022 164.381 268.217 162.668 270.606 162.668C271.521 162.668 272.239 162.915 272.762 163.41C273.285 163.905 273.593 164.53 273.686 165.286H272.51ZM270.606 167.372C270.205 167.372 269.827 167.456 269.472 167.624C269.117 167.783 268.828 168.03 268.604 168.366C268.389 168.693 268.282 169.094 268.282 169.57C268.282 170.279 268.487 170.858 268.898 171.306C269.309 171.745 269.897 171.964 270.662 171.964C271.315 171.964 271.833 171.763 272.216 171.362C272.608 170.951 272.804 170.401 272.804 169.71C272.804 168.982 272.617 168.413 272.244 168.002C271.871 167.582 271.325 167.372 270.606 167.372Z" fill="white"/>
<path d="M322.098 178.872L318.206 188H316.918L320.866 178.998H315.462V177.906H322.098V178.872Z" fill="white"/>
<path d="M350.716 211.736C350.193 211.531 349.792 211.232 349.512 210.84C349.232 210.448 349.092 209.972 349.092 209.412C349.092 208.908 349.218 208.455 349.47 208.054C349.722 207.643 350.095 207.321 350.59 207.088C351.094 206.845 351.701 206.724 352.41 206.724C353.119 206.724 353.721 206.845 354.216 207.088C354.72 207.321 355.098 207.643 355.35 208.054C355.611 208.455 355.742 208.908 355.742 209.412C355.742 209.953 355.597 210.429 355.308 210.84C355.019 211.241 354.622 211.54 354.118 211.736C354.697 211.913 355.154 212.226 355.49 212.674C355.835 213.113 356.008 213.645 356.008 214.27C356.008 214.877 355.859 215.409 355.56 215.866C355.261 216.314 354.837 216.664 354.286 216.916C353.745 217.159 353.119 217.28 352.41 217.28C351.701 217.28 351.075 217.159 350.534 216.916C350.002 216.664 349.587 216.314 349.288 215.866C348.989 215.409 348.84 214.877 348.84 214.27C348.84 213.645 349.008 213.108 349.344 212.66C349.68 212.212 350.137 211.904 350.716 211.736ZM354.51 209.566C354.51 208.997 354.323 208.558 353.95 208.25C353.577 207.942 353.063 207.788 352.41 207.788C351.766 207.788 351.257 207.942 350.884 208.25C350.511 208.558 350.324 209.001 350.324 209.58C350.324 210.103 350.515 210.523 350.898 210.84C351.29 211.157 351.794 211.316 352.41 211.316C353.035 211.316 353.539 211.157 353.922 210.84C354.314 210.513 354.51 210.089 354.51 209.566ZM352.41 212.296C351.719 212.296 351.155 212.459 350.716 212.786C350.277 213.103 350.058 213.584 350.058 214.228C350.058 214.825 350.268 215.306 350.688 215.67C351.117 216.034 351.691 216.216 352.41 216.216C353.129 216.216 353.698 216.034 354.118 215.67C354.538 215.306 354.748 214.825 354.748 214.228C354.748 213.603 354.533 213.127 354.104 212.8C353.675 212.464 353.11 212.296 352.41 212.296Z" fill="#F80B52"/>
<path d="M395.52 257.316C397.406 257.123 398.783 255.438 398.54 253.559C396.041 234.172 389.183 215.587 378.463 199.207C367.116 181.868 351.774 167.507 333.725 157.327C315.676 147.148 295.448 141.449 274.74 140.709C254.032 139.969 233.449 144.21 214.719 153.074C195.99 161.939 179.662 175.169 167.106 191.653C154.55 208.137 146.134 227.394 142.564 247.805C138.993 268.216 140.374 289.186 146.589 308.954C152.461 327.629 162.486 344.715 175.894 358.938C177.194 360.317 179.371 360.32 180.715 358.984C182.059 357.648 182.061 355.479 180.763 354.098C168.128 340.655 158.678 324.523 153.136 306.895C147.25 288.176 145.943 268.317 149.324 248.987C152.705 229.658 160.675 211.422 172.565 195.811C184.456 180.201 199.919 167.672 217.655 159.277C235.392 150.883 254.884 146.867 274.495 147.568C294.105 148.269 313.261 153.666 330.354 163.305C347.446 172.945 361.975 186.546 372.72 202.965C382.839 218.426 389.325 235.962 391.711 254.256C391.956 256.135 393.635 257.508 395.52 257.316Z" fill="black" fill-opacity="0.25"/>
<path d="M209.925 384.764C218.981 389.518 228.569 393.183 238.487 395.681L239.562 391.412C229.981 388.998 220.72 385.458 211.972 380.866L209.925 384.764Z" fill="#F80B52"/>
<path d="M241.65 396.435C251.627 398.684 261.836 399.742 272.063 399.588L271.997 395.186C262.118 395.335 252.256 394.313 242.617 392.141L241.65 396.435Z" fill="#F80B52"/>
<path d="M275.314 399.499C285.533 399.088 295.669 397.468 305.507 394.673L304.304 390.438C294.8 393.138 285.009 394.703 275.137 395.1L275.314 399.499Z" fill="#F80B52"/>
<path d="M308.623 393.745C318.389 390.703 327.759 386.515 336.539 381.268L334.281 377.489C325.799 382.557 316.747 386.603 307.314 389.541L308.623 393.745Z" fill="#A7A7A7" fill-opacity="0.25"/>
<path d="M408.835 252.169C410.363 251.972 411.444 250.573 411.218 249.049C408.02 227.562 399.957 207.074 387.629 189.157C374.773 170.473 357.65 155.123 337.678 144.377C317.707 133.631 295.461 127.799 272.786 127.365C250.111 126.932 227.659 131.908 207.291 141.882C186.923 151.856 169.225 166.541 155.664 184.72C142.104 202.898 133.07 224.046 129.313 246.412C125.556 268.778 127.183 291.717 134.06 313.329C140.655 334.054 151.895 352.985 166.909 368.686C167.974 369.8 169.742 369.803 170.835 368.717C171.927 367.63 171.93 365.866 170.866 364.752C156.477 349.68 145.703 331.517 139.377 311.637C132.769 290.87 131.205 268.828 134.815 247.336C138.426 225.845 147.106 205.523 160.136 188.056C173.167 170.588 190.173 156.477 209.745 146.893C229.317 137.309 250.891 132.527 272.68 132.944C294.468 133.36 315.844 138.964 335.035 149.29C354.226 159.616 370.68 174.366 383.033 192.32C394.858 209.506 402.6 229.154 405.683 249.763C405.911 251.286 407.307 252.366 408.835 252.169Z" fill="black" fill-opacity="0.25"/>
<g filter="url(#filter0_d_4103_925)">
<path d="M200.094 148.875C199.323 147.541 197.616 147.082 196.297 147.878C178.372 158.699 163.038 173.338 151.393 190.766C139.231 208.968 131.42 229.723 128.562 251.426C125.705 273.13 127.879 295.2 134.915 315.929C141.653 335.777 152.675 353.886 167.188 368.978C168.256 370.088 170.025 370.086 171.114 368.997C172.204 367.908 172.201 366.143 171.134 365.032C157.226 350.546 146.661 333.173 140.198 314.136C133.437 294.217 131.348 273.01 134.094 252.155C136.839 231.3 144.346 211.356 156.032 193.866C167.202 177.15 181.903 163.103 199.087 152.711C200.405 151.913 200.864 150.21 200.094 148.875Z" fill="white"/>
</g>
<g filter="url(#filter1_d_4103_925)">
<path d="M359.251 180.979C360.591 179.639 360.594 177.463 359.219 176.159C347.725 165.259 334.321 156.553 319.668 150.483C303.958 143.976 287.12 140.627 270.115 140.627C253.111 140.627 236.273 143.976 220.562 150.483C204.852 156.991 190.577 166.529 178.553 178.553C166.529 190.577 156.991 204.852 150.484 220.562C143.977 236.272 140.627 253.11 140.627 270.115C140.627 287.119 143.977 303.957 150.484 319.668C156.553 334.32 165.259 347.724 176.159 359.218C177.463 360.593 179.64 360.59 180.98 359.25C182.32 357.91 182.316 355.741 181.014 354.364C170.75 343.508 162.549 330.861 156.824 317.041C150.662 302.164 147.49 286.218 147.49 270.115C147.49 254.011 150.662 238.066 156.824 223.188C162.987 208.311 172.019 194.792 183.406 183.406C194.793 172.019 208.311 162.986 223.189 156.824C238.066 150.661 254.012 147.49 270.115 147.49C286.219 147.49 302.164 150.661 317.042 156.824C330.862 162.548 343.509 170.749 354.364 181.013C355.741 182.315 357.911 182.319 359.251 180.979Z" fill="#F80B52"/>
</g>
<path d="M222.246 262.064C222.246 254.683 223.484 248.923 225.958 244.784C228.476 240.603 232.785 238.512 238.886 238.512C244.988 238.512 249.276 240.603 251.75 244.784C254.268 248.923 255.526 254.683 255.526 262.064C255.526 269.531 254.268 275.376 251.75 279.6C249.276 283.781 244.988 285.872 238.886 285.872C232.785 285.872 228.476 283.781 225.958 279.6C223.484 275.376 222.246 269.531 222.246 262.064ZM248.358 262.064C248.358 258.608 248.124 255.685 247.654 253.296C247.228 250.907 246.332 248.965 244.966 247.472C243.601 245.936 241.574 245.168 238.886 245.168C236.198 245.168 234.172 245.936 232.806 247.472C231.441 248.965 230.524 250.907 230.054 253.296C229.628 255.685 229.414 258.608 229.414 262.064C229.414 265.648 229.628 268.656 230.054 271.088C230.481 273.52 231.377 275.483 232.742 276.976C234.15 278.469 236.198 279.216 238.886 279.216C241.574 279.216 243.601 278.469 244.966 276.976C246.374 275.483 247.292 273.52 247.718 271.088C248.145 268.656 248.358 265.648 248.358 262.064ZM271.118 261.616C266.681 259.397 264.462 255.899 264.462 251.12C264.462 248.816 265.038 246.704 266.19 244.784C267.342 242.864 269.07 241.349 271.374 240.24C273.678 239.088 276.494 238.512 279.822 238.512C283.108 238.512 285.902 239.088 288.206 240.24C290.553 241.349 292.302 242.864 293.454 244.784C294.606 246.704 295.182 248.816 295.182 251.12C295.182 253.509 294.564 255.621 293.326 257.456C292.132 259.248 290.532 260.635 288.526 261.616C290.958 262.512 292.878 263.984 294.286 266.032C295.694 268.037 296.398 270.405 296.398 273.136C296.398 275.909 295.694 278.363 294.286 280.496C292.878 282.629 290.916 284.272 288.398 285.424C285.881 286.576 283.022 287.152 279.822 287.152C276.622 287.152 273.764 286.576 271.246 285.424C268.772 284.272 266.83 282.629 265.422 280.496C264.014 278.363 263.31 275.909 263.31 273.136C263.31 270.363 264.014 267.973 265.422 265.968C266.83 263.963 268.729 262.512 271.118 261.616ZM288.206 252.016C288.206 249.627 287.46 247.792 285.966 246.512C284.473 245.232 282.425 244.592 279.822 244.592C277.262 244.592 275.236 245.232 273.742 246.512C272.249 247.792 271.502 249.648 271.502 252.08C271.502 254.213 272.27 255.963 273.806 257.328C275.385 258.651 277.39 259.312 279.822 259.312C282.254 259.312 284.26 258.629 285.838 257.264C287.417 255.899 288.206 254.149 288.206 252.016ZM279.822 264.816C277.006 264.816 274.702 265.52 272.91 266.928C271.161 268.293 270.286 270.277 270.286 272.88C270.286 275.312 271.14 277.296 272.846 278.832C274.553 280.325 276.878 281.072 279.822 281.072C282.724 281.072 285.006 280.304 286.67 278.768C288.377 277.232 289.23 275.269 289.23 272.88C289.23 270.32 288.356 268.336 286.606 266.928C284.9 265.52 282.638 264.816 279.822 264.816ZM303.099 246V239.344H316.411V286H309.051V246H303.099Z" fill="#515151"/>
<g filter="url(#filter2_d_4103_925)">
<path d="M271.118 261.616C266.681 259.397 264.462 255.899 264.462 251.12C264.462 248.816 265.038 246.704 266.19 244.784C267.342 242.864 269.07 241.349 271.374 240.24C273.678 239.088 276.494 238.512 279.822 238.512C283.108 238.512 285.902 239.088 288.206 240.24C290.553 241.349 292.302 242.864 293.454 244.784C294.606 246.704 295.182 248.816 295.182 251.12C295.182 253.509 294.564 255.621 293.326 257.456C292.132 259.248 290.532 260.635 288.526 261.616C290.958 262.512 292.878 263.984 294.286 266.032C295.694 268.037 296.398 270.405 296.398 273.136C296.398 275.909 295.694 278.363 294.286 280.496C292.878 282.629 290.916 284.272 288.398 285.424C285.881 286.576 283.022 287.152 279.822 287.152C276.622 287.152 273.764 286.576 271.246 285.424C268.772 284.272 266.83 282.629 265.422 280.496C264.014 278.363 263.31 275.909 263.31 273.136C263.31 270.363 264.014 267.973 265.422 265.968C266.83 263.963 268.729 262.512 271.118 261.616ZM288.206 252.016C288.206 249.627 287.46 247.792 285.966 246.512C284.473 245.232 282.425 244.592 279.822 244.592C277.262 244.592 275.236 245.232 273.742 246.512C272.249 247.792 271.502 249.648 271.502 252.08C271.502 254.213 272.27 255.963 273.806 257.328C275.385 258.651 277.39 259.312 279.822 259.312C282.254 259.312 284.26 258.629 285.838 257.264C287.417 255.899 288.206 254.149 288.206 252.016ZM279.822 264.816C277.006 264.816 274.702 265.52 272.91 266.928C271.161 268.293 270.286 270.277 270.286 272.88C270.286 275.312 271.14 277.296 272.846 278.832C274.553 280.325 276.878 281.072 279.822 281.072C282.724 281.072 285.006 280.304 286.67 278.768C288.377 277.232 289.23 275.269 289.23 272.88C289.23 270.32 288.356 268.336 286.606 266.928C284.9 265.52 282.638 264.816 279.822 264.816ZM303.099 246V239.344H316.411V286H309.051V246H303.099Z" fill="#F80B52"/>
</g>
<g filter="url(#filter3_d_4103_925)">
<path d="M250.076 315L244.158 308.158V315H241.65V299.71H244.158V306.684L250.098 299.71H253.244L246.6 307.366L253.354 315H250.076ZM271.676 299.71V315H269.168V304.528L264.504 315H262.766L258.08 304.528V315H255.572V299.71H258.278L263.646 311.7L268.992 299.71H271.676ZM283.112 294.232L277.128 318.85H274.664L280.626 294.232H283.112ZM298.483 299.71V315H295.975V308.312H288.781V315H286.273V299.71H288.781V306.266H295.975V299.71H298.483Z" fill="#F80B52"/>
</g>
<defs>
<filter id="filter0_d_4103_925" x="115.741" y="135.886" width="96.327" height="245.526" filterUnits="userSpaceOnUse" color-interpolation-filters="sRGB">
<feFlood flood-opacity="0" result="BackgroundImageFix"/>
<feColorMatrix in="SourceAlpha" type="matrix" values="0 0 0 0 0 0 0 0 0 0 0 0 0 0 0 0 0 0 127 0" result="hardAlpha"/>
<feOffset/>
<feGaussianBlur stdDeviation="5.8"/>
<feComposite in2="hardAlpha" operator="out"/>
<feColorMatrix type="matrix" values="0 0 0 0 1 0 0 0 0 1 0 0 0 0 1 0 0 0 0.25 0"/>
<feBlend mode="normal" in2="BackgroundImageFix" result="effect1_dropShadow_4103_925"/>
<feBlend mode="normal" in="SourceGraphic" in2="effect1_dropShadow_4103_925" result="shape"/>
</filter>
<filter id="filter1_d_4103_925" x="124.727" y="124.727" width="251.426" height="251.426" filterUnits="userSpaceOnUse" color-interpolation-filters="sRGB">
<feFlood flood-opacity="0" result="BackgroundImageFix"/>
<feColorMatrix in="SourceAlpha" type="matrix" values="0 0 0 0 0 0 0 0 0 0 0 0 0 0 0 0 0 0 127 0" result="hardAlpha"/>
<feOffset/>
<feGaussianBlur stdDeviation="7.95"/>
<feComposite in2="hardAlpha" operator="out"/>
<feColorMatrix type="matrix" values="0 0 0 0 1 0 0 0 0 0.0156863 0 0 0 0 0.317647 0 0 0 0.9 0"/>
<feBlend mode="normal" in2="BackgroundImageFix" result="effect1_dropShadow_4103_925"/>
<feBlend mode="normal" in="SourceGraphic" in2="effect1_dropShadow_4103_925" result="shape"/>
</filter>
<filter id="filter2_d_4103_925" x="237.311" y="212.512" width="105.101" height="100.64" filterUnits="userSpaceOnUse" color-interpolation-filters="sRGB">
<feFlood flood-opacity="0" result="BackgroundImageFix"/>
<feColorMatrix in="SourceAlpha" type="matrix" values="0 0 0 0 0 0 0 0 0 0 0 0 0 0 0 0 0 0 127 0" result="hardAlpha"/>
<feOffset/>
<feGaussianBlur stdDeviation="13"/>
<feComposite in2="hardAlpha" operator="out"/>
<feColorMatrix type="matrix" values="0 0 0 0 1 0 0 0 0 0.0156863 0 0 0 0 0.317647 0 0 0 1 0"/>
<feBlend mode="normal" in2="BackgroundImageFix" result="effect1_dropShadow_4103_925"/>
<feBlend mode="normal" in="SourceGraphic" in2="effect1_dropShadow_4103_925" result="shape"/>
</filter>
<filter id="filter3_d_4103_925" x="215.65" y="268.232" width="108.833" height="76.6182" filterUnits="userSpaceOnUse" color-interpolation-filters="sRGB">
<feFlood flood-opacity="0" result="BackgroundImageFix"/>
<feColorMatrix in="SourceAlpha" type="matrix" values="0 0 0 0 0 0 0 0 0 0 0 0 0 0 0 0 0 0 127 0" result="hardAlpha"/>
<feOffset/>
<feGaussianBlur stdDeviation="13"/>
<feComposite in2="hardAlpha" operator="out"/>
<feColorMatrix type="matrix" values="0 0 0 0 1 0 0 0 0 0.0156863 0 0 0 0 0.317647 0 0 0 1 0"/>
<feBlend mode="normal" in2="BackgroundImageFix" result="effect1_dropShadow_4103_925"/>
<feBlend mode="normal" in="SourceGraphic" in2="effect1_dropShadow_4103_925" result="shape"/>
</filter>
<radialGradient id="paint0_radial_4103_925" cx="0" cy="0" r="1" gradientUnits="userSpaceOnUse" gradientTransform="translate(120.239 -9.24915) rotate(90) scale(179.115)">
<stop stop-color="#F80B52"/>
<stop offset="1" stop-color="#F80B52" stop-opacity="0"/>
</radialGradient>
</defs>
</svg>
