<svg width="13" height="15" viewBox="0 0 13 15" fill="none" xmlns="http://www.w3.org/2000/svg">
<path d="M0 13.4643C0 14.2333 0.623884 14.8571 1.39286 14.8571H11.6071C12.3761 14.8571 13 14.2333 13 13.4643V5.57143H0V13.4643ZM1.85714 7.89286C1.85714 7.6375 2.06607 7.42857 2.32143 7.42857H5.10714C5.3625 7.42857 5.57143 7.6375 5.57143 7.89286V10.6786C5.57143 10.9339 5.3625 11.1429 5.10714 11.1429H2.32143C2.06607 11.1429 1.85714 10.9339 1.85714 10.6786V7.89286ZM11.6071 1.85714H10.2143V0.464286C10.2143 0.208929 10.0054 0 9.75 0H8.82143C8.56607 0 8.35714 0.208929 8.35714 0.464286V1.85714H4.64286V0.464286C4.64286 0.208929 4.43393 0 4.17857 0H3.25C2.99464 0 2.78571 0.208929 2.78571 0.464286V1.85714H1.39286C0.623884 1.85714 0 2.48103 0 3.25V4.64286H13V3.25C13 2.48103 12.3761 1.85714 11.6071 1.85714Z" fill="#F80B53"/>
</svg>
