<svg width="12" height="14" viewBox="0 0 12 14" fill="none" xmlns="http://www.w3.org/2000/svg">
<path d="M8.72965 3.8154C8.72965 3.0376 8.80704 2.11265 9.38262 1.1457L9.90534 0.266508C10.0035 0.100844 10.1817 0 10.3735 0C10.566 0 10.7436 0.100844 10.8423 0.265997L11.3656 1.14519C11.9242 2.08485 12 3.02234 12 3.8154V4.36045H8.72965V3.8154Z" fill="#F80B53"/>
<path d="M11.9999 10.3564C11.9999 10.5559 11.9421 10.7402 11.8484 10.901C11.9421 11.0617 11.9999 11.2465 11.9999 11.4455V11.9916C11.9999 12.5928 11.5115 13.0812 10.9103 13.0812H9.81913C9.21793 13.0812 8.72957 12.5928 8.72957 11.9916V11.4455C8.72957 11.2465 8.78734 11.0617 8.88111 10.901C8.78736 10.7402 8.72957 10.5559 8.72957 10.3564V5.45037H11.9999L11.9999 10.3564ZM9.81965 11.446L9.81911 11.9911L10.9098 11.9922L10.9103 11.446H9.81965Z" fill="#F80B53"/>
<path d="M5.01256 2.78052L5.53582 1.90133C5.73257 1.57102 6.27545 1.57102 6.47277 1.90133L6.99603 2.78105C7.55472 3.72128 7.63048 4.6577 7.63048 5.4502L7.63158 5.99525H4.36122L4.36013 5.4502C4.36013 4.67295 4.43752 3.74744 5.01256 2.78105V2.78052Z" fill="#F80B53"/>
<path d="M7.63942 10.3564C7.63942 10.5559 7.58165 10.7402 7.48788 10.901C7.58163 11.0617 7.63942 11.2465 7.63942 11.4455V11.9916C7.63942 12.5928 7.15104 13.0812 6.54986 13.0812H5.45866C4.85745 13.0812 4.36909 12.5928 4.36909 11.9916V11.4455C4.36909 11.2465 4.42686 11.0617 4.52007 10.901C4.42686 10.7407 4.36909 10.5565 4.36909 10.3581L4.36309 7.08555H7.63344L7.63942 10.3564ZM5.45919 11.446L5.45866 11.9911L6.54932 11.9922L6.54986 11.446H5.45919Z" fill="#F80B53"/>
<path d="M0.652108 4.41618V4.41564L1.17537 3.53645C1.37212 3.20615 1.915 3.20615 2.11232 3.53645L2.63558 4.41618C3.19427 5.3564 3.27003 6.29282 3.27003 7.08532L3.27112 7.63037H0.000771523L-0.000326157 7.08532C-0.000326157 6.30808 0.0770626 5.38257 0.652108 4.41618Z" fill="#F80B53"/>
<path d="M3.27894 10.3564C3.27894 10.5559 3.22118 10.7402 3.12741 10.901C3.22115 11.0617 3.27894 11.2465 3.27894 11.4455V11.9916C3.27894 12.5928 2.79056 13.0812 2.18938 13.0812H1.09818C0.496972 13.0812 0.00861645 12.5928 0.00861645 11.9916V11.4455C0.00861645 11.2465 0.0663834 11.0623 0.159589 10.9015C0.0663834 10.7407 0.00861645 10.557 0.00861645 10.3586L0.00424671 8.7207H3.2746L3.27894 10.3564ZM1.09872 11.446L1.09818 11.9911L2.18884 11.9922L2.18938 11.446H1.09872Z" fill="#F80B53"/>
</svg>
