<svg width="14" height="14" viewBox="0 0 14 14" fill="none" xmlns="http://www.w3.org/2000/svg">
<path d="M7 0C3.13428 0 0 3.13541 0 7C0 10.8668 3.13428 14 7 14C10.8657 14 14 10.8668 14 7C14 3.13541 10.8657 0 7 0ZM7 3.10484C7.65473 3.10484 8.18548 3.6356 8.18548 4.29032C8.18548 4.94505 7.65473 5.47581 7 5.47581C6.34527 5.47581 5.81452 4.94505 5.81452 4.29032C5.81452 3.6356 6.34527 3.10484 7 3.10484ZM8.58064 10.2742C8.58064 10.4612 8.42899 10.6129 8.24193 10.6129H5.75806C5.57101 10.6129 5.41935 10.4612 5.41935 10.2742V9.59677C5.41935 9.40972 5.57101 9.25806 5.75806 9.25806H6.09677V7.45161H5.75806C5.57101 7.45161 5.41935 7.29996 5.41935 7.1129V6.43548C5.41935 6.24843 5.57101 6.09677 5.75806 6.09677H7.56452C7.75157 6.09677 7.90323 6.24843 7.90323 6.43548V9.25806H8.24193C8.42899 9.25806 8.58064 9.40972 8.58064 9.59677V10.2742Z" fill="#6EFFD3"/>
</svg>
