<svg width="11" height="10" viewBox="0 0 11 10" fill="none" xmlns="http://www.w3.org/2000/svg">
<path d="M0.396566 5.69611C0.139733 5.44948 0.00697493 5.12139 0.00026092 4.79106C-0.00636357 4.46082 0.113146 4.12754 0.359684 3.87071C0.606043 3.61405 0.934134 3.4812 1.26437 3.47458C1.59479 3.46778 1.9279 3.58693 2.18491 3.83373L4.40384 5.96888L8.82157 0.357044L8.97984 0.477806L8.82139 0.356506C8.83401 0.340124 8.84834 0.326159 8.86427 0.31479C9.1271 0.0871404 9.45698 -0.0156286 9.77944 0.00191732V0.00155924L9.79519 0.00299156C10.1195 0.0244764 10.4363 0.168604 10.6702 0.429644C10.9082 0.695071 11.0161 1.0322 10.9981 1.36173H10.9984L10.997 1.37748C10.9759 1.696 10.8367 2.00726 10.5844 2.23974L5.28266 8.69324L5.28302 8.6936C5.27308 8.70622 5.26189 8.71706 5.24972 8.72655C5.00148 8.94453 4.68798 9.05141 4.37627 9.04604C4.06197 9.04058 3.74829 8.92107 3.50426 8.68653L0.396566 5.69611Z" fill="#59FF60"/>
</svg>
