<svg width="13" height="16" viewBox="0 0 13 16" fill="none" xmlns="http://www.w3.org/2000/svg">
<path d="M11.2 0H1.6C1.17565 0 0.768687 0.168571 0.468629 0.468629C0.168571 0.768687 0 1.17565 0 1.6V16L2.4 13.6L4 16L6.4 13.6L8.8 16L10.4 13.6L12.8 16V1.6C12.8 1.17565 12.6314 0.768687 12.3314 0.468629C12.0313 0.168571 11.6243 0 11.2 0ZM6.4 11.2H3.2C2.98783 11.2 2.78434 11.1157 2.63432 10.9657C2.48429 10.8157 2.4 10.6122 2.4 10.4C2.4 10.1878 2.48429 9.98434 2.63432 9.83432C2.78434 9.68429 2.98783 9.6 3.2 9.6H6.4C6.61217 9.6 6.81566 9.68429 6.96569 9.83432C7.11572 9.98434 7.2 10.1878 7.2 10.4C7.2 10.6122 7.11572 10.8157 6.96569 10.9657C6.81566 11.1157 6.61217 11.2 6.4 11.2ZM6.4 8H3.2C2.98783 8 2.78434 7.91571 2.63432 7.76569C2.48429 7.61566 2.4 7.41217 2.4 7.2C2.4 6.98783 2.48429 6.78434 2.63432 6.63432C2.78434 6.48429 2.98783 6.4 3.2 6.4H6.4C6.61217 6.4 6.81566 6.48429 6.96569 6.63432C7.11572 6.78434 7.2 6.98783 7.2 7.2C7.2 7.41217 7.11572 7.61566 6.96569 7.76569C6.81566 7.91571 6.61217 8 6.4 8ZM9.6 11.2H8.8C8.58783 11.2 8.38435 11.1157 8.23432 10.9657C8.08429 10.8157 8 10.6122 8 10.4C8 10.1878 8.08429 9.98434 8.23432 9.83432C8.38435 9.68429 8.58783 9.6 8.8 9.6H9.6C9.81217 9.6 10.0157 9.68429 10.1657 9.83432C10.3157 9.98434 10.4 10.1878 10.4 10.4C10.4 10.6122 10.3157 10.8157 10.1657 10.9657C10.0157 11.1157 9.81217 11.2 9.6 11.2ZM9.6 8H8.8C8.58783 8 8.38435 7.91571 8.23432 7.76569C8.08429 7.61566 8 7.41217 8 7.2C8 6.98783 8.08429 6.78434 8.23432 6.63432C8.38435 6.48429 8.58783 6.4 8.8 6.4H9.6C9.81217 6.4 10.0157 6.48429 10.1657 6.63432C10.3157 6.78434 10.4 6.98783 10.4 7.2C10.4 7.41217 10.3157 7.61566 10.1657 7.76569C10.0157 7.91571 9.81217 8 9.6 8ZM9.6 4H3.2C2.98783 4 2.78434 3.91571 2.63432 3.76569C2.48429 3.61566 2.4 3.41217 2.4 3.2C2.4 2.98783 2.48429 2.78434 2.63432 2.63431C2.78434 2.48429 2.98783 2.4 3.2 2.4H9.6C9.81217 2.4 10.0157 2.48429 10.1657 2.63431C10.3157 2.78434 10.4 2.98783 10.4 3.2C10.4 3.41217 10.3157 3.61566 10.1657 3.76569C10.0157 3.91571 9.81217 4 9.6 4Z" fill="#FFB46E"/>
</svg>
