<svg width="18" height="16" viewBox="0 0 18 16" fill="none" xmlns="http://www.w3.org/2000/svg">
<path d="M17.5 7.00027H16.5781C16.3031 6.37525 15.903 5.8221 15.4093 5.35958L15.9999 3.00012H14.9999C14.0811 3.00012 13.2686 3.42201 12.7185 4.07203C12.481 4.03766 12.2466 4.00016 11.9998 4.00016H7.99961C5.58076 4.00016 3.56506 5.71897 3.09942 8.00031H1.74936C1.28685 8.00031 0.921206 7.57842 1.01496 7.10028C1.08371 6.74401 1.4181 6.50025 1.78062 6.50025H1.81187C1.915 6.50025 1.99937 6.41588 1.99937 6.31275V5.68772C1.99937 5.58459 1.915 5.50022 1.81187 5.50022C0.921206 5.50022 0.127425 6.13774 0.0149211 7.01902C-0.122584 8.08782 0.708698 9.00035 1.74936 9.00035H2.99941C2.99941 10.6317 3.79319 12.0661 4.99949 12.9786V15.5006C4.99949 15.7756 5.2245 16.0006 5.49951 16.0006H7.49959C7.7746 16.0006 7.99961 15.7756 7.99961 15.5006V14.0005H11.9998V15.5006C11.9998 15.7756 12.2248 16.0006 12.4998 16.0006H14.4999C14.7749 16.0006 14.9999 15.7756 14.9999 15.5006V12.9786C15.3686 12.7005 15.6968 12.3724 15.978 12.0005H17.5C17.775 12.0005 18 11.7755 18 11.5005V7.50029C18 7.22528 17.775 7.00027 17.5 7.00027ZM13.4998 9.00035C13.2248 9.00035 12.9998 8.77534 12.9998 8.50033C12.9998 8.22532 13.2248 8.00031 13.4998 8.00031C13.7748 8.00031 13.9998 8.22532 13.9998 8.50033C13.9998 8.77534 13.7748 9.00035 13.4998 9.00035ZM7.99961 3.00012H11.9998C12.1685 3.00012 12.3342 3.01262 12.4967 3.02512C12.4967 3.01574 12.4998 3.00949 12.4998 3.00012C12.4998 1.3438 11.156 0 9.49967 0C7.84335 0 6.49955 1.3438 6.49955 3.00012C6.49955 3.06574 6.51518 3.12825 6.5183 3.19387C6.99332 3.072 7.48709 3.00012 7.99961 3.00012Z" fill="#59FF60"/>
</svg>
