<svg width="13" height="13" viewBox="0 0 13 13" fill="none" xmlns="http://www.w3.org/2000/svg">
<path d="M6.5 0C2.90927 0 0 2.90927 0 6.5C0 10.0907 2.90927 13 6.5 13C10.0907 13 13 10.0907 13 6.5C13 2.90927 10.0907 0 6.5 0ZM7.99657 9.17601L5.68488 7.49597C5.60363 7.43569 5.55645 7.34133 5.55645 7.24173V2.83065C5.55645 2.65766 5.69798 2.51613 5.87097 2.51613H7.12903C7.30202 2.51613 7.44355 2.65766 7.44355 2.83065V6.43972L9.10786 7.6506C9.24939 7.75282 9.27823 7.9494 9.17601 8.09093L8.43689 9.10786C8.33468 9.24677 8.1381 9.27823 7.99657 9.17601Z" fill="#F80B53"/>
</svg>
