<svg width="13" height="11" viewBox="0 0 13 11" fill="none" xmlns="http://www.w3.org/2000/svg">
<path d="M1.48027 9.74656C1.50763 9.91808 1.65556 10.0443 1.82924 10.0443H10.859C11.3361 10.0443 11.8026 9.86053 12.1259 9.5089C12.2044 9.42377 12.2767 9.32961 12.3459 9.23165H1.39815L1.48027 9.74656ZM1.28354 8.06051H12.5852C12.6827 8.06051 12.7734 8.08675 12.8543 8.12912C13.1044 7.20765 13.049 6.11312 12.5588 5.15161C12.4404 4.92015 12.262 4.72401 12.0535 4.57029L7.71739 1.37562C6.57771 0.538081 5.20124 0.0839844 3.78592 0.0839844H0.353467C0.136082 0.0839844 -0.029749 0.278372 0.00449317 0.493029L1.21253 8.06768C1.23606 8.0648 1.25921 8.06051 1.28354 8.06051ZM3.85493 6.02916C3.85493 6.09402 3.80236 6.1466 3.7375 6.1466H2.01968C1.95482 6.1466 1.90224 6.09402 1.90224 6.02916V5.75405C1.90224 5.68919 1.95482 5.63661 2.01968 5.63661H3.73752C3.80236 5.63661 3.85496 5.68919 3.85496 5.75405L3.85493 6.02916ZM3.78592 0.967472C5.01924 0.967472 6.19781 1.35444 7.19437 2.08772L9.98616 4.14447H1.4818L0.974695 0.967472H3.78592ZM12.5852 8.33718H1.28359C1.11299 8.33718 0.974695 8.47547 0.974695 8.64607C0.974695 8.81667 1.11299 8.95496 1.28359 8.95496H12.5852C12.7558 8.95496 12.8941 8.81667 12.8941 8.64607C12.8941 8.47547 12.7558 8.33718 12.5852 8.33718Z" fill="#F80B52" fill-opacity="0.66"/>
</svg>
