<svg width="187" height="37" viewBox="0 0 187 37" fill="none" xmlns="http://www.w3.org/2000/svg">
<path d="M39.7296 14.8154C39.7296 14.0376 39.807 13.1126 40.3826 12.1457L40.9053 11.2665C41.0035 11.1008 41.1817 11 41.3735 11C41.566 11 41.7436 11.1008 41.8423 11.266L42.3656 12.1452C42.9242 13.0848 43 14.0223 43 14.8154V15.3605H39.7296V14.8154Z" fill="#F80B53"/>
<path d="M42.9999 21.3564C42.9999 21.5559 42.9421 21.7402 42.8484 21.901C42.9421 22.0617 42.9999 22.2465 42.9999 22.4455V22.9916C42.9999 23.5928 42.5115 24.0812 41.9103 24.0812H40.8191C40.2179 24.0812 39.7296 23.5928 39.7296 22.9916V22.4455C39.7296 22.2465 39.7873 22.0617 39.8811 21.901C39.7874 21.7402 39.7296 21.5559 39.7296 21.3564V16.4504H42.9999L42.9999 21.3564ZM40.8196 22.446L40.8191 22.9911L41.9098 22.9922L41.9103 22.446H40.8196Z" fill="#F80B53"/>
<path d="M36.0126 13.7805L36.5358 12.9013C36.7326 12.571 37.2755 12.571 37.4728 12.9013L37.996 13.7811C38.5547 14.7213 38.6305 15.6577 38.6305 16.4502L38.6316 16.9952H35.3612L35.3601 16.4502C35.3601 15.673 35.4375 14.7474 36.0126 13.7811V13.7805Z" fill="#F80B53"/>
<path d="M38.6394 21.3564C38.6394 21.5559 38.5817 21.7402 38.4879 21.901C38.5816 22.0617 38.6394 22.2465 38.6394 22.4455V22.9916C38.6394 23.5928 38.151 24.0812 37.5499 24.0812H36.4587C35.8574 24.0812 35.3691 23.5928 35.3691 22.9916V22.4455C35.3691 22.2465 35.4269 22.0617 35.5201 21.901C35.4269 21.7407 35.3691 21.5565 35.3691 21.3581L35.3631 18.0856H38.6334L38.6394 21.3564ZM36.4592 22.446L36.4587 22.9911L37.5493 22.9922L37.5499 22.446H36.4592Z" fill="#F80B53"/>
<path d="M31.6521 15.4162V15.4156L32.1754 14.5365C32.3721 14.2061 32.915 14.2061 33.1123 14.5365L33.6356 15.4162C34.1943 16.3564 34.27 17.2928 34.27 18.0853L34.2711 18.6304H31.0008L30.9997 18.0853C30.9997 17.3081 31.0771 16.3826 31.6521 15.4162Z" fill="#F80B53"/>
<path d="M34.2789 21.3564C34.2789 21.5559 34.2212 21.7402 34.1274 21.901C34.2211 22.0617 34.2789 22.2465 34.2789 22.4455V22.9916C34.2789 23.5928 33.7906 24.0812 33.1894 24.0812H32.0982C31.497 24.0812 31.0086 23.5928 31.0086 22.9916V22.4455C31.0086 22.2465 31.0664 22.0623 31.1596 21.9015C31.0664 21.7407 31.0086 21.557 31.0086 21.3586L31.0042 19.7207H34.2746L34.2789 21.3564ZM32.0987 22.446L32.0982 22.9911L33.1888 22.9922L33.1894 22.446H32.0987Z" fill="#F80B53"/>
<g clip-path="url(#clip0_4103_879)">
<rect width="334" height="37" rx="5" fill="white" fill-opacity="0.01"/>
<g filter="url(#filter0_f_4103_879)">
<circle cx="9.5" cy="-55.5" r="93.5" fill="white" fill-opacity="0.25"/>
</g>
<g filter="url(#filter1_d_4103_879)">
<path d="M-1 9C-1 8.44772 -0.552285 8 0 8H0.236204C0.687155 8 1.08231 8.30182 1.20097 8.73688L3.92824 18.7369C3.97522 18.9091 3.97522 19.0909 3.92824 19.2631L1.20097 29.2631C1.08231 29.6982 0.687155 30 0.236204 30H0C-0.552285 30 -1 29.5523 -1 29V9Z" fill="#F91E60"/>
</g>
<path d="M128.409 22.1059C129.142 24.8393 130.816 27.2259 133.138 28.8441C135.459 30.4624 138.278 31.2083 141.096 30.95C143.914 30.6917 146.55 29.4458 148.538 27.4324C150.527 25.4191 151.74 22.7678 151.963 19.9468C152.186 17.1258 151.405 14.3167 149.758 12.0157C148.111 9.71458 145.704 8.06959 142.962 7.37123C140.22 6.67288 137.319 6.9661 134.772 8.1991C132.225 9.4321 130.195 11.5255 129.042 14.1097L130.31 14.6756C131.33 12.3906 133.124 10.5394 135.377 9.44906C137.629 8.35875 140.194 8.09947 142.619 8.717C145.044 9.33454 147.173 10.7892 148.629 12.8239C150.085 14.8587 150.776 17.3427 150.579 19.8372C150.381 22.3317 149.308 24.6762 147.55 26.4566C145.792 28.2369 143.461 29.3386 140.969 29.567C138.477 29.7955 135.985 29.1359 133.932 27.7049C131.879 26.2739 130.398 24.1635 129.751 21.7465L128.409 22.1059Z" fill="#404040"/>
<g filter="url(#filter2_d_4103_879)">
<path d="M149.038 11.1059C147.873 9.77266 146.428 8.71354 144.806 8.00452C143.184 7.29551 141.425 6.95415 139.656 7.00494C137.886 7.05573 136.15 7.49739 134.571 8.29827C132.992 9.09916 131.61 10.2394 130.524 11.6373C129.438 13.0352 128.675 14.6561 128.289 16.3837C127.903 18.1114 127.904 19.9031 128.292 21.6303C128.68 23.3575 129.445 24.9775 130.533 26.3741C131.621 27.7706 133.004 28.9092 134.584 29.7082L135.211 28.469C133.814 27.7625 132.591 26.7556 131.629 25.5207C130.667 24.2857 129.99 22.8532 129.647 21.3259C129.304 19.7986 129.303 18.2143 129.644 16.6865C129.985 15.1588 130.66 13.7255 131.621 12.4894C132.581 11.2532 133.803 10.2449 135.199 9.53675C136.595 8.82855 138.131 8.438 139.696 8.39309C141.26 8.34818 142.816 8.65003 144.25 9.277C145.684 9.90396 146.962 10.8405 147.992 12.0195L149.038 11.1059Z" fill="url(#paint0_linear_4103_879)" shape-rendering="crispEdges"/>
</g>
<path d="M140.478 22H141.875L140.665 19.9126C141.29 19.5959 141.712 18.9624 141.712 18.2639C141.712 17.1837 140.843 16.3146 139.763 16.3146H137.489V22H138.788V20.1319H139.406L140.478 22ZM138.788 17.5329H139.763C140.12 17.5329 140.413 17.8497 140.413 18.2639C140.413 18.6781 140.12 18.9949 139.763 18.9949H138.788V17.5329Z" fill="#7D7D7D"/>
</g>
<defs>
<filter id="filter0_f_4103_879" x="-323" y="-388" width="665" height="665" filterUnits="userSpaceOnUse" color-interpolation-filters="sRGB">
<feFlood flood-opacity="0" result="BackgroundImageFix"/>
<feBlend mode="normal" in="SourceGraphic" in2="BackgroundImageFix" result="shape"/>
<feGaussianBlur stdDeviation="119.5" result="effect1_foregroundBlur_4103_879"/>
</filter>
<filter id="filter1_d_4103_879" x="-14" y="-6" width="30.9639" height="48" filterUnits="userSpaceOnUse" color-interpolation-filters="sRGB">
<feFlood flood-opacity="0" result="BackgroundImageFix"/>
<feColorMatrix in="SourceAlpha" type="matrix" values="0 0 0 0 0 0 0 0 0 0 0 0 0 0 0 0 0 0 127 0" result="hardAlpha"/>
<feOffset dy="-1"/>
<feGaussianBlur stdDeviation="6.5"/>
<feComposite in2="hardAlpha" operator="out"/>
<feColorMatrix type="matrix" values="0 0 0 0 0.976471 0 0 0 0 0.117647 0 0 0 0 0.376471 0 0 0 1 0"/>
<feBlend mode="normal" in2="BackgroundImageFix" result="effect1_dropShadow_4103_879"/>
<feBlend mode="normal" in="SourceGraphic" in2="effect1_dropShadow_4103_879" result="shape"/>
</filter>
<filter id="filter2_d_4103_879" x="113" y="-8" width="51.0381" height="52.7083" filterUnits="userSpaceOnUse" color-interpolation-filters="sRGB">
<feFlood flood-opacity="0" result="BackgroundImageFix"/>
<feColorMatrix in="SourceAlpha" type="matrix" values="0 0 0 0 0 0 0 0 0 0 0 0 0 0 0 0 0 0 127 0" result="hardAlpha"/>
<feOffset/>
<feGaussianBlur stdDeviation="7.5"/>
<feComposite in2="hardAlpha" operator="out"/>
<feColorMatrix type="matrix" values="0 0 0 0 0.941176 0 0 0 0 0.0431373 0 0 0 0 0.313726 0 0 0 1 0"/>
<feBlend mode="normal" in2="BackgroundImageFix" result="effect1_dropShadow_4103_879"/>
<feBlend mode="normal" in="SourceGraphic" in2="effect1_dropShadow_4103_879" result="shape"/>
</filter>
<linearGradient id="paint0_linear_4103_879" x1="127.5" y1="18" x2="136" y2="23.5" gradientUnits="userSpaceOnUse">
<stop offset="0.044352" stop-color="#F80B52"/>
<stop offset="1" stop-color="#F80B52" stop-opacity="0"/>
</linearGradient>
<clipPath id="clip0_4103_879">
<rect width="334" height="37" rx="5" fill="white"/>
</clipPath>
</defs>
</svg>
